<?xml version="1.0"?>
<svg xmlns="http://www.w3.org/2000/svg" xmlns:xlink="http://www.w3.org/1999/xlink" xmlns:svgjs="http://svgjs.com/svgjs" version="1.1" width="512" height="512" x="0" y="0" viewBox="0 0 32 32" style="enable-background:new 0 0 512 512" xml:space="preserve" class=""><g><g xmlns="http://www.w3.org/2000/svg" id="Layer_2" data-name="Layer 2"><path d="m23.661 4.106a10.881 10.881 0 0 0 -8-3.1 11.04 11.04 0 0 0 -10.649 10.469 10.93 10.93 0 0 0 2.841 7.911 37.946 37.946 0 0 1 7.036 10.558l.192.45a1 1 0 0 0 1.838 0l.427-1a34.8 34.8 0 0 1 6.721-9.924 10.994 10.994 0 0 0 -.406-15.367zm-7.661 11.894a4 4 0 1 1 4-4 4 4 0 0 1 -4 4z" fill="#5677ba" data-original="#000000" class=""/></g></g></svg>
