<svg width="49" height="48" viewBox="0 0 49 48" fill="none" xmlns="http://www.w3.org/2000/svg">
<path d="M38.3976 8.02979H10.5583C8.97617 8.02979 7.4588 8.65829 6.34004 9.77705C5.22128 10.8958 4.59277 12.4132 4.59277 13.9953V33.8805C4.59277 35.4627 5.22128 36.9801 6.34004 38.0988C7.4588 39.2176 8.97617 39.8461 10.5583 39.8461H38.3976C39.9797 39.8461 41.4971 39.2176 42.6159 38.0988C43.7346 36.9801 44.3631 35.4627 44.3631 33.8805V13.9953C44.3631 12.4132 43.7346 10.8958 42.6159 9.77705C41.4971 8.65829 39.9797 8.02979 38.3976 8.02979ZM38.3976 12.0068L25.4722 20.8955C25.1699 21.07 24.827 21.1619 24.4779 21.1619C24.1289 21.1619 23.786 21.07 23.4837 20.8955L10.5583 12.0068H38.3976Z" fill="#5677BA"/>
</svg>
