<svg width="48" height="48" viewBox="0 0 48 48" fill="none" xmlns="http://www.w3.org/2000/svg">
<path d="M23.9651 3.79639C12.6701 3.79639 3.51172 12.9547 3.51172 24.2497C3.51172 35.5447 12.6701 44.7031 23.9651 44.7031C35.2601 44.7031 44.4184 35.5447 44.4184 24.2497C44.4184 12.9547 35.2601 3.79639 23.9651 3.79639ZM32.0231 30.5364L30.7174 32.3169C30.689 32.3557 30.6532 32.3885 30.6121 32.4134C30.571 32.4383 30.5254 32.4548 30.4779 32.462C30.4304 32.4692 30.3819 32.467 30.3352 32.4554C30.2886 32.4438 30.2447 32.4232 30.2061 32.3946L22.6548 26.8886C22.6077 26.8548 22.5695 26.8102 22.5433 26.7586C22.5171 26.7069 22.5036 26.6497 22.5041 26.5918V14.0231C22.5041 13.8222 22.6685 13.6578 22.8694 13.6578H25.0653C25.2662 13.6578 25.4306 13.8222 25.4306 14.0231V25.3226L31.941 30.0296C32.1053 30.1438 32.1418 30.3721 32.0231 30.5364Z" fill="#5677BA"/>
</svg>
