<svg width="1102" height="1067" viewBox="0 0 1102 1067" fill="none" xmlns="http://www.w3.org/2000/svg">
<path d="M989.461 184.76L983.71 175.331C935.366 95.6144 847.917 47.5767 755.755 53.4223C743.87 54.1282 732.053 55.7038 720.398 58.1365C636.58 76.074 563.652 139.456 533.41 220.635C515.637 268.366 510.688 323.333 476.84 361.236C432.951 410.546 358.396 412.102 292.868 410.051C227.341 408 152.739 409.745 109.015 459.267C81.8375 490.381 73.1398 534.553 75.2612 575.991C81.1068 685.949 157.76 784.24 255.131 833.103C352.503 881.965 467.27 886.326 573.881 864.853C723.251 834.729 865.313 752.042 950.687 624.429C1036.06 496.816 1057.77 322.603 989.461 184.76Z" fill="#F5F5F5"/>
<path d="M922.279 910.885C928.276 876.133 904.965 843.1 870.213 837.104C835.461 831.107 802.428 854.418 796.432 889.17C790.435 923.922 813.746 956.955 848.498 962.952C883.25 968.948 916.283 945.637 922.279 910.885Z" fill="#F5F5F5"/>
<path d="M1049.07 1064.57C1049.07 1064.9 824.134 1065.18 546.704 1065.18C269.274 1065.18 44.2891 1064.9 44.2891 1064.57C44.2891 1064.24 269.18 1063.96 546.704 1063.96C824.229 1063.96 1049.07 1064.22 1049.07 1064.57Z" fill="#263238"/>
<path d="M1007.56 116.404H86.2925V175.426H1007.56V116.404Z" fill="#E0E0E0"/>
<path d="M1007.42 229.639H86.1514V746.314H1007.42V229.639Z" fill="white"/>
<path d="M86.2925 174.978H212.798L225.314 138.49H430.381L442.898 174.978H1007.56V230.888H86.2925V174.978Z" fill="#EBEBEB"/>
<path d="M116.699 139.951C116.699 141.322 116.293 142.662 115.531 143.801C114.77 144.941 113.687 145.829 112.421 146.354C111.155 146.878 109.762 147.015 108.417 146.748C107.073 146.481 105.838 145.821 104.869 144.852C103.9 143.882 103.24 142.648 102.973 141.303C102.705 139.959 102.842 138.566 103.367 137.299C103.891 136.033 104.78 134.951 105.919 134.189C107.059 133.428 108.399 133.022 109.769 133.022C110.68 133.018 111.583 133.196 112.425 133.543C113.267 133.89 114.032 134.4 114.676 135.044C115.32 135.688 115.831 136.454 116.178 137.296C116.525 138.138 116.702 139.04 116.699 139.951Z" fill="#263238"/>
<path d="M138.125 139.951C138.125 141.322 137.718 142.662 136.957 143.801C136.196 144.941 135.113 145.829 133.847 146.354C132.581 146.878 131.187 147.015 129.843 146.748C128.499 146.481 127.264 145.821 126.295 144.852C125.326 143.882 124.666 142.648 124.398 141.303C124.131 139.959 124.268 138.566 124.793 137.299C125.317 136.033 126.205 134.951 127.345 134.189C128.485 133.428 129.824 133.022 131.195 133.022C132.106 133.018 133.008 133.196 133.851 133.543C134.693 133.89 135.458 134.4 136.102 135.044C136.746 135.688 137.257 136.454 137.604 137.296C137.951 138.138 138.128 139.04 138.125 139.951Z" fill="#263238"/>
<path d="M159.551 139.951C159.551 141.322 159.145 142.662 158.383 143.801C157.622 144.941 156.539 145.829 155.273 146.354C154.007 146.878 152.614 147.015 151.269 146.748C149.925 146.481 148.69 145.821 147.721 144.852C146.752 143.882 146.092 142.648 145.825 141.303C145.557 139.959 145.694 138.566 146.219 137.299C146.743 136.033 147.632 134.951 148.771 134.189C149.911 133.428 151.251 133.022 152.621 133.022C153.532 133.018 154.435 133.196 155.277 133.543C156.119 133.89 156.884 134.4 157.528 135.044C158.172 135.688 158.683 136.454 159.03 137.296C159.377 138.138 159.554 139.04 159.551 139.951Z" fill="#263238"/>
<path d="M905.737 219.763H273.682C269.031 219.763 264.57 217.915 261.281 214.626C257.993 211.338 256.145 206.877 256.145 202.226C256.145 197.575 257.993 193.114 261.281 189.826C264.57 186.537 269.031 184.689 273.682 184.689H905.737C910.388 184.689 914.849 186.537 918.138 189.826C921.426 193.114 923.274 197.575 923.274 202.226C923.274 206.877 921.426 211.338 918.138 214.626C914.849 217.915 910.388 219.763 905.737 219.763Z" fill="#FAFAFA"/>
<path d="M288.814 204.559V210.499H285.821V205.031C285.821 203.357 285.043 202.674 283.723 202.674C282.403 202.674 281.224 203.569 281.224 205.455V210.594H278.231V196.215H281.224V201.212C282.125 200.393 283.307 199.954 284.524 199.987C285.123 199.947 285.723 200.04 286.281 200.26C286.839 200.48 287.341 200.821 287.751 201.258C288.162 201.695 288.47 202.218 288.654 202.789C288.837 203.36 288.892 203.965 288.814 204.559V204.559Z" fill="#E0E0E0"/>
<path d="M298.196 209.981C297.493 210.43 296.672 210.66 295.839 210.641C295.327 210.711 294.806 210.664 294.314 210.504C293.823 210.344 293.375 210.074 293.003 209.716C292.631 209.357 292.345 208.919 292.166 208.434C291.988 207.95 291.922 207.431 291.973 206.916V202.674H290.37V200.317H291.973V197.794H294.966V200.317H297.536V202.674H294.966V206.916C294.941 207.096 294.956 207.279 295.011 207.451C295.066 207.624 295.16 207.782 295.284 207.913C295.409 208.045 295.562 208.146 295.731 208.21C295.901 208.275 296.082 208.3 296.263 208.284C296.697 208.289 297.121 208.148 297.465 207.883L298.196 209.981Z" fill="#E0E0E0"/>
<path d="M306.257 209.981C305.552 210.425 304.733 210.654 303.9 210.641C303.388 210.711 302.867 210.664 302.375 210.504C301.884 210.344 301.436 210.074 301.064 209.716C300.692 209.357 300.406 208.919 300.227 208.434C300.049 207.95 299.983 207.431 300.034 206.916V202.674H298.431V200.317H300.034V197.794H303.028V200.317H305.62V202.674H303.028V206.916C303.006 207.095 303.025 207.276 303.081 207.447C303.138 207.617 303.232 207.773 303.355 207.904C303.479 208.034 303.63 208.136 303.797 208.202C303.965 208.267 304.144 208.295 304.324 208.284C304.765 208.289 305.196 208.148 305.55 207.883L306.257 209.981Z" fill="#E0E0E0"/>
<path d="M319.315 205.314C319.358 206.01 319.255 206.708 319.013 207.363C318.771 208.018 318.395 208.615 317.91 209.116C317.424 209.618 316.839 210.012 316.192 210.275C315.545 210.537 314.851 210.662 314.153 210.641C313.575 210.668 312.998 210.571 312.461 210.355C311.925 210.139 311.44 209.811 311.042 209.392V214.106H308.048V199.963H310.971V201.165C311.379 200.713 311.882 200.357 312.445 200.125C313.008 199.892 313.616 199.789 314.224 199.822C314.931 199.809 315.632 199.945 316.283 200.222C316.933 200.499 317.518 200.91 317.999 201.428C318.479 201.947 318.845 202.561 319.072 203.23C319.299 203.9 319.382 204.61 319.315 205.314V205.314ZM316.275 205.314C316.229 204.804 316.036 204.319 315.72 203.917C315.403 203.515 314.977 203.213 314.492 203.049C314.008 202.885 313.486 202.865 312.99 202.992C312.495 203.119 312.046 203.387 311.7 203.764C311.354 204.141 311.125 204.61 311.041 205.115C310.957 205.62 311.021 206.138 311.226 206.607C311.431 207.076 311.768 207.475 312.195 207.756C312.623 208.037 313.123 208.187 313.635 208.189C314.003 208.195 314.369 208.122 314.707 207.976C315.045 207.83 315.349 207.614 315.599 207.343C315.848 207.071 316.037 206.75 316.153 206.4C316.27 206.051 316.311 205.68 316.275 205.314Z" fill="#E0E0E0"/>
<path d="M320.588 201.849C320.64 201.388 320.859 200.962 321.205 200.653C321.551 200.344 321.998 200.174 322.462 200.174C322.926 200.174 323.373 200.344 323.719 200.653C324.064 200.962 324.284 201.388 324.336 201.849C324.365 202.112 324.339 202.38 324.258 202.632C324.178 202.885 324.045 203.118 323.868 203.316C323.691 203.514 323.474 203.672 323.232 203.781C322.99 203.889 322.727 203.945 322.462 203.945C322.196 203.945 321.934 203.889 321.692 203.781C321.45 203.672 321.233 203.514 321.056 203.316C320.879 203.118 320.746 202.885 320.665 202.632C320.585 202.38 320.558 202.112 320.588 201.849V201.849ZM320.588 208.755C320.64 208.294 320.859 207.869 321.205 207.56C321.551 207.251 321.998 207.08 322.462 207.08C322.926 207.08 323.373 207.251 323.719 207.56C324.064 207.869 324.284 208.294 324.336 208.755C324.365 209.019 324.339 209.286 324.258 209.539C324.178 209.791 324.045 210.024 323.868 210.222C323.691 210.42 323.474 210.578 323.232 210.687C322.99 210.795 322.727 210.851 322.462 210.851C322.196 210.851 321.934 210.795 321.692 210.687C321.45 210.578 321.233 210.42 321.056 210.222C320.879 210.024 320.746 209.791 320.665 209.539C320.585 209.286 320.558 209.019 320.588 208.755V208.755Z" fill="#E0E0E0"/>
<path d="M331.714 194.282H334.401L328.037 212.409H325.373L331.714 194.282Z" fill="#E0E0E0"/>
<path d="M337.866 194.282H340.529L334.189 212.409H331.501L337.866 194.282Z" fill="#E0E0E0"/>
<path d="M905.172 322.556H354.483C346.238 322.556 338.33 319.28 332.499 313.45C326.669 307.619 323.393 299.711 323.393 291.466V291.466C323.399 283.222 326.677 275.318 332.506 269.488C338.335 263.659 346.239 260.382 354.483 260.375H905.172C913.415 260.382 921.32 263.659 927.149 269.488C932.978 275.318 936.255 283.222 936.262 291.466C936.262 299.711 932.986 307.619 927.156 313.45C921.325 319.28 913.417 322.556 905.172 322.556V322.556Z" fill="#FAFAFA"/>
<path d="M905.171 322.556C909.564 322.461 913.893 321.483 917.9 319.68C921.842 317.865 925.364 315.252 928.245 312.007C931.126 308.761 933.301 304.953 934.635 300.823C935.752 297.138 936.184 293.279 935.908 289.438C935.616 285.139 934.427 280.948 932.419 277.134C930.174 272.957 927.006 269.345 923.156 266.575C918.95 263.544 914.043 261.63 908.896 261.012C906.16 260.778 903.414 260.699 900.669 260.776H892.09H812.915L354.53 260.941C349.026 260.957 343.628 262.455 338.903 265.278C334.26 268.05 330.438 272.007 327.83 276.744C325.221 281.48 323.92 286.825 324.059 292.231C324.198 297.636 325.773 302.907 328.622 307.503C331.47 312.099 335.49 315.854 340.27 318.384C344.99 320.83 350.252 322.046 355.567 321.919H509.203L715.284 322.061L854.352 322.249H892.066H901.895C904.111 322.249 905.242 322.249 905.242 322.249H901.895H892.066H854.352L715.284 322.461L509.203 322.579H387.482H355.567C350.053 322.721 344.593 321.456 339.704 318.902C333.445 315.592 328.474 310.283 325.583 303.819C322.693 297.356 322.049 290.11 323.755 283.239C325.46 276.367 329.417 270.264 334.995 265.902C340.573 261.541 347.45 259.172 354.53 259.173L813.033 259.951H892.207H900.787C903.563 259.883 906.341 259.97 909.108 260.21C914.347 260.862 919.335 262.833 923.604 265.938C927.347 268.621 930.448 272.102 932.682 276.129C934.916 280.157 936.227 284.63 936.521 289.226C936.769 293.127 936.306 297.041 935.154 300.776C934.084 304.037 932.492 307.101 930.439 309.851C927.242 314.185 922.98 317.62 918.065 319.821C915.069 321.138 911.889 321.989 908.636 322.344C906.303 322.556 905.171 322.556 905.171 322.556Z" fill="#263238"/>
<path d="M367.117 298.089L368.272 295.496C369.731 296.496 371.454 297.037 373.222 297.052C375.273 297.052 376.098 296.368 376.098 295.449C376.098 292.644 367.4 294.577 367.4 289.014C367.4 286.468 369.451 284.3 373.717 284.3C375.533 284.265 377.324 284.721 378.903 285.62L377.842 288.26C376.586 287.511 375.156 287.105 373.693 287.081C371.643 287.081 370.841 287.859 370.841 288.802C370.841 291.56 379.539 289.651 379.539 295.143C379.539 297.641 377.465 299.857 373.198 299.857C371.038 299.907 368.914 299.289 367.117 298.089V298.089Z" fill="#E0E0E0"/>
<path d="M392.88 294.766H384.183C384.355 295.491 384.785 296.129 385.391 296.562C385.998 296.995 386.741 297.194 387.483 297.123C388.014 297.139 388.542 297.047 389.037 296.853C389.531 296.658 389.981 296.365 390.358 295.991L392.126 297.924C391.227 298.789 390.104 299.385 388.885 299.646C387.665 299.907 386.397 299.822 385.223 299.4C384.049 298.978 383.016 298.237 382.241 297.26C381.466 296.283 380.979 295.109 380.835 293.87C380.825 293.072 380.978 292.28 381.285 291.544C381.592 290.807 382.046 290.141 382.621 289.587C383.195 289.032 383.876 288.602 384.623 288.321C385.37 288.04 386.167 287.915 386.964 287.954C387.759 287.913 388.553 288.04 389.296 288.325C390.039 288.61 390.715 289.047 391.279 289.609C391.842 290.171 392.282 290.844 392.571 291.586C392.859 292.328 392.988 293.122 392.951 293.917C392.951 294.129 392.904 294.483 392.88 294.766ZM384.135 292.809H389.792C389.671 292.148 389.322 291.549 388.805 291.119C388.288 290.688 387.637 290.452 386.964 290.452C386.291 290.452 385.64 290.688 385.123 291.119C384.606 291.549 384.257 292.148 384.135 292.809V292.809Z" fill="#E0E0E0"/>
<path d="M405.019 292.998V299.574H401.908V298.136C401.519 298.693 400.989 299.136 400.371 299.418C399.753 299.7 399.071 299.811 398.396 299.739C395.709 299.739 394.106 298.231 394.106 296.251C394.106 294.271 395.544 292.809 399.032 292.809H401.696C401.696 291.395 400.824 290.452 399.032 290.452C397.847 290.442 396.69 290.814 395.732 291.513L394.53 289.156C396.007 288.213 397.729 287.729 399.48 287.765C402.898 287.906 405.019 289.533 405.019 292.998ZM401.696 295.944V294.766H399.339C397.783 294.766 397.288 295.331 397.288 296.109C397.288 296.887 397.995 297.5 399.15 297.5C399.686 297.553 400.224 297.429 400.684 297.149C401.143 296.868 401.498 296.445 401.696 295.944V295.944Z" fill="#E0E0E0"/>
<path d="M415.178 287.906V290.971H414.424C414.006 290.936 413.585 290.995 413.192 291.143C412.799 291.292 412.445 291.525 412.154 291.828C411.862 292.13 411.642 292.494 411.509 292.892C411.376 293.29 411.333 293.712 411.383 294.129V299.574H408.036V288.071H411.218V289.58C411.698 289.007 412.308 288.556 412.996 288.265C413.685 287.974 414.433 287.851 415.178 287.906Z" fill="#E0E0E0"/>
<path d="M416.215 293.823C416.216 293.003 416.386 292.193 416.715 291.443C417.044 290.692 417.525 290.018 418.127 289.462C418.729 288.907 419.44 288.482 420.214 288.214C420.988 287.946 421.81 287.841 422.627 287.906C423.677 287.822 424.729 288.056 425.646 288.577C426.562 289.098 427.3 289.883 427.765 290.829L425.172 292.22C424.934 291.743 424.568 291.342 424.113 291.063C423.659 290.784 423.136 290.638 422.603 290.641C421.759 290.641 420.95 290.976 420.353 291.573C419.756 292.169 419.421 292.979 419.421 293.823C419.421 294.667 419.756 295.476 420.353 296.073C420.95 296.67 421.759 297.005 422.603 297.005C423.137 297.014 423.663 296.87 424.118 296.59C424.573 296.31 424.939 295.906 425.172 295.426L427.765 296.84C427.292 297.778 426.551 298.554 425.636 299.07C424.721 299.586 423.674 299.819 422.627 299.739C421.81 299.804 420.988 299.699 420.214 299.432C419.44 299.164 418.729 298.739 418.127 298.183C417.525 297.627 417.044 296.953 416.715 296.203C416.386 295.452 416.216 294.642 416.215 293.823V293.823Z" fill="#E0E0E0"/>
<path d="M441.366 292.998V299.574H438.019V293.493C438.019 291.631 437.17 290.782 435.662 290.782C434.153 290.782 432.904 291.772 432.904 293.893V299.574H429.557V283.711H432.904V289.273C433.391 288.814 433.966 288.457 434.593 288.222C435.22 287.988 435.888 287.88 436.557 287.906C437.227 287.855 437.899 287.953 438.526 288.195C439.152 288.437 439.716 288.816 440.177 289.304C440.638 289.792 440.984 290.377 441.19 291.016C441.395 291.655 441.456 292.332 441.366 292.998Z" fill="#E0E0E0"/>
<path d="M449.615 297.641C449.615 297.091 449.834 296.563 450.223 296.174C450.612 295.785 451.139 295.567 451.689 295.567C452.24 295.567 452.767 295.785 453.156 296.174C453.545 296.563 453.764 297.091 453.764 297.641C453.764 298.191 453.545 298.719 453.156 299.108C452.767 299.497 452.24 299.715 451.689 299.715C451.139 299.715 450.612 299.497 450.223 299.108C449.834 298.719 449.615 298.191 449.615 297.641Z" fill="#E0E0E0"/>
<path d="M455.225 297.641C455.23 297.232 455.355 296.833 455.586 296.495C455.817 296.157 456.142 295.895 456.522 295.742C456.901 295.588 457.318 295.551 457.718 295.633C458.119 295.716 458.487 295.915 458.774 296.206C459.062 296.497 459.257 296.867 459.335 297.269C459.414 297.67 459.371 298.086 459.213 298.464C459.056 298.842 458.79 299.164 458.449 299.391C458.109 299.618 457.709 299.739 457.299 299.739C457.024 299.742 456.751 299.69 456.496 299.585C456.242 299.481 456.011 299.326 455.817 299.13C455.624 298.935 455.471 298.702 455.37 298.446C455.268 298.19 455.219 297.916 455.225 297.641Z" fill="#E0E0E0"/>
<path d="M460.812 297.641C460.812 297.091 461.03 296.563 461.419 296.174C461.808 295.785 462.336 295.567 462.886 295.567C463.436 295.567 463.963 295.785 464.352 296.174C464.741 296.563 464.96 297.091 464.96 297.641C464.96 297.914 464.906 298.183 464.802 298.435C464.698 298.687 464.545 298.915 464.352 299.108C464.16 299.3 463.931 299.453 463.68 299.557C463.428 299.662 463.158 299.715 462.886 299.715C462.613 299.715 462.344 299.662 462.092 299.557C461.84 299.453 461.612 299.3 461.419 299.108C461.226 298.915 461.074 298.687 460.969 298.435C460.865 298.183 460.812 297.914 460.812 297.641V297.641Z" fill="#E0E0E0"/>
<path d="M259.28 376.627C259.28 376.981 237.17 377.24 209.922 377.24C182.674 377.24 160.564 376.981 160.564 376.627C160.564 376.274 182.65 376.015 209.922 376.015C237.194 376.015 259.28 376.345 259.28 376.627Z" fill="black"/>
<path d="M263.145 404.889H160.564V507.47H263.145V404.889Z" fill="#4DE9C6"/>
<path d="M886.456 429.073C886.456 429.403 759.173 429.686 602.096 429.686C445.019 429.686 317.712 429.403 317.712 429.073C317.712 428.743 444.996 428.46 602.096 428.46C759.197 428.46 886.456 428.719 886.456 429.073Z" fill="black"/>
<path d="M473.281 467.682C473.281 468.036 439.716 468.295 398.349 468.295C356.982 468.295 323.393 468.036 323.393 467.682C323.393 467.329 356.935 467.069 398.349 467.069C439.763 467.069 473.281 467.352 473.281 467.682Z" fill="black"/>
<path d="M795.567 503.51C795.567 503.84 689.851 504.123 559.48 504.123C429.109 504.123 323.393 503.84 323.393 503.51C323.393 503.18 429.085 502.874 559.48 502.874C689.874 502.874 795.567 503.156 795.567 503.51Z" fill="#E0E0E0"/>
<path d="M259.28 560.481C259.28 560.811 237.17 561.094 209.922 561.094C182.674 561.094 160.564 560.811 160.564 560.481C160.564 560.151 182.65 559.868 209.922 559.868C237.194 559.868 259.28 560.08 259.28 560.481Z" fill="black"/>
<path d="M263.145 588.625H160.564V691.206H263.145V588.625Z" fill="#4DE9C6"/>
<path d="M920.257 612.785C920.257 613.139 785.36 613.398 618.996 613.398C452.633 613.398 317.712 613.139 317.712 612.785C317.712 612.431 452.585 612.172 618.996 612.172C785.407 612.172 920.257 612.455 920.257 612.785Z" fill="black"/>
<path d="M473.281 651.418C473.281 651.748 439.716 652.031 398.349 652.031C356.982 652.031 323.393 651.748 323.393 651.418C323.393 651.088 356.935 650.805 398.349 650.805C439.763 650.805 473.281 651.088 473.281 651.418Z" fill="black"/>
<path d="M877.782 687.222C877.782 687.575 753.681 687.835 600.611 687.835C447.541 687.835 323.393 687.575 323.393 687.222C323.393 686.868 447.494 686.609 600.611 686.609C753.728 686.609 877.782 686.892 877.782 687.222Z" fill="#E0E0E0"/>
<path d="M1007.56 747.564C1007.56 743.509 1007.38 500.54 1007.07 116.404L1007.56 116.899H86.3633L86.9761 116.286C86.9761 341.577 86.9761 555.625 86.9761 747.446L86.4104 746.88L1007.68 747.446L86.4104 747.988H85.8447V747.446C85.8447 555.625 85.8447 341.577 85.8447 116.286V115.673H86.5283H1007.73H1008.22V116.168C1007.78 500.54 1007.56 743.509 1007.56 747.564Z" fill="#263238"/>
<path d="M405.491 162.132C405.491 162.485 372.963 162.744 332.845 162.744C292.727 162.744 260.199 162.485 260.199 162.132C260.199 161.778 292.727 161.519 332.845 161.519C372.963 161.519 405.491 161.802 405.491 162.132Z" fill="black"/>
<path d="M274.436 278.148H145.409V317.016H274.436V278.148Z" fill="#455A64"/>
<path d="M502.909 379.951C502.909 380.305 462.839 380.564 413.34 380.564C363.841 380.564 323.77 380.305 323.77 379.951C323.77 379.597 363.841 379.338 413.34 379.338C462.839 379.338 502.909 379.621 502.909 379.951Z" fill="#EF7C8F"/>
<path d="M502.909 560.481C502.909 560.811 462.839 561.094 413.34 561.094C363.841 561.094 323.77 560.811 323.77 560.481C323.77 560.151 363.841 559.868 413.34 559.868C462.839 559.868 502.909 560.08 502.909 560.481Z" fill="#EF7C8F"/>
<path d="M893.315 301.813C890.348 301.818 887.447 300.942 884.978 299.297C882.509 297.651 880.584 295.31 879.446 292.57C878.309 289.83 878.01 286.814 878.588 283.903C879.165 280.993 880.594 278.32 882.692 276.222C884.79 274.124 887.463 272.696 890.373 272.118C893.283 271.54 896.299 271.839 899.04 272.977C901.78 274.114 904.121 276.039 905.766 278.508C907.412 280.977 908.288 283.879 908.283 286.846C908.277 290.813 906.698 294.617 903.892 297.423C901.087 300.228 897.283 301.807 893.315 301.813V301.813ZM893.315 274.212C890.816 274.207 888.371 274.944 886.29 276.329C884.209 277.715 882.586 279.686 881.626 281.995C880.666 284.303 880.413 286.844 880.898 289.296C881.383 291.748 882.584 294.002 884.35 295.771C886.116 297.54 888.367 298.746 890.818 299.235C893.27 299.725 895.811 299.476 898.121 298.52C900.431 297.565 902.406 295.945 903.795 293.867C905.184 291.789 905.926 289.346 905.926 286.846C905.926 283.499 904.598 280.289 902.234 277.92C899.87 275.552 896.662 274.218 893.315 274.212V274.212Z" fill="#EF7C8F"/>
<path d="M911.724 308.46C911.405 308.46 911.1 308.332 910.875 308.107L901.117 298.419C901.007 298.309 900.92 298.179 900.861 298.035C900.801 297.892 900.771 297.738 900.771 297.582C900.771 297.427 900.801 297.273 900.861 297.129C900.92 296.986 901.007 296.855 901.117 296.746C901.227 296.636 901.357 296.548 901.501 296.489C901.645 296.43 901.798 296.399 901.954 296.399C902.109 296.399 902.263 296.43 902.407 296.489C902.55 296.548 902.681 296.636 902.791 296.746L912.549 306.433C912.708 306.601 912.815 306.811 912.857 307.037C912.9 307.264 912.876 307.499 912.789 307.712C912.702 307.926 912.555 308.11 912.367 308.243C912.178 308.376 911.955 308.451 911.724 308.46V308.46Z" fill="#EF7C8F"/>
<path d="M664.253 465.042C664.253 465.372 625.667 465.655 578.054 465.655C530.44 465.655 491.831 465.372 491.831 465.042C491.831 464.712 530.44 464.429 578.054 464.429C625.667 464.429 664.253 464.688 664.253 465.042Z" fill="black"/>
<path d="M775.672 462.379C775.672 462.732 755.472 462.992 730.581 462.992C705.69 462.992 685.466 462.732 685.466 462.379C685.466 462.025 705.667 461.766 730.581 461.766C755.496 461.766 775.672 462.049 775.672 462.379Z" fill="black"/>
<path d="M663.428 651.418C663.428 651.748 624.842 652.031 577.229 652.031C529.615 652.031 491.03 651.748 491.03 651.418C491.03 651.088 529.615 650.805 577.229 650.805C624.842 650.805 663.428 651.088 663.428 651.418Z" fill="black"/>
<path d="M200.706 699.927C181.567 709.827 166.906 726.892 156.369 745.678C145.833 764.464 139.021 785.041 132.303 805.619L126.411 911.146C148.662 873.291 166.481 828.789 171.337 785.136L156.534 783.816C166.458 782.307 174.802 775.118 180.105 766.585C185.409 758.053 188.119 748.224 190.783 738.536L172.728 741.223C187.017 731.567 197.037 716.778 200.706 699.927V699.927Z" fill="#455A64"/>
<g opacity="0.3">
<path d="M200.706 699.927C181.567 709.827 166.906 726.892 156.369 745.678C145.833 764.464 139.021 785.041 132.303 805.619L126.411 911.146C148.662 873.291 166.481 828.789 171.337 785.136L156.534 783.816C166.458 782.307 174.802 775.118 180.105 766.585C185.409 758.053 188.119 748.224 190.783 738.536L172.728 741.223C187.017 731.567 197.037 716.778 200.706 699.927V699.927Z" fill="black"/>
</g>
<path d="M123.111 935.731C123.111 935.731 74.8138 877.935 75.3795 822.755H94.8727C94.8727 822.755 73.6588 808.801 75.3559 800.999C77.053 793.197 77.713 763.663 77.713 763.663L95.5562 768.117C95.5562 768.117 82.1679 761.423 80.4944 750.84C78.8209 740.257 84.4072 691.182 84.4072 691.182C84.4072 691.182 106.14 714.046 112.834 737.452C119.528 760.858 136.97 788.176 131.832 859.526C126.693 930.875 123.111 935.731 123.111 935.731Z" fill="#455A64"/>
<path d="M147.601 941.199C147.601 941.199 199.928 906.338 211.549 861.859L195.851 857.475C195.851 857.475 215.957 850.922 216.31 844.275C216.664 837.628 222.674 813.751 222.674 813.751L207.353 813.445C207.353 813.445 219.587 811.087 223.24 802.838C226.894 794.588 233.164 754.046 233.164 754.046C233.164 754.046 210.677 767.646 200.164 785.018C189.652 802.39 169.522 820.492 158.09 878.995C146.658 937.498 147.601 941.199 147.601 941.199Z" fill="#455A64"/>
<path d="M97.4888 741.6C97.572 741.789 97.6352 741.987 97.6773 742.189L98.1016 743.957C98.4787 745.631 98.9973 747.917 99.6809 750.816C101.024 756.78 102.816 765.43 104.843 776.155C108.968 797.581 113.847 827.375 117.689 860.468C121.531 893.562 123.558 923.686 124.43 945.513C124.878 956.426 125.114 965.241 125.161 971.441C125.161 974.434 125.161 976.768 125.161 978.512C125.161 979.266 125.161 979.855 125.161 980.35C125.196 980.553 125.196 980.761 125.161 980.963C125.128 980.76 125.128 980.553 125.161 980.35C125.161 979.879 125.161 979.266 125.161 978.535C125.161 976.815 125.02 974.481 124.902 971.464C124.713 965.359 124.336 956.544 123.77 945.654C122.686 923.851 120.494 893.798 116.699 860.798C112.904 827.799 108.143 797.958 104.23 776.485C102.297 765.76 100.647 757.086 99.5159 751.099C98.9502 748.176 98.5023 745.866 98.1723 744.217C98.0545 743.462 97.9366 742.873 97.8659 742.402C97.6827 742.165 97.5539 741.892 97.4888 741.6Z" fill="#263238"/>
<path d="M116.416 971.134C116.416 971.134 72.2209 921.117 58.479 890.663L68.8502 886.255C61.3311 887.481 53.6469 884.252 47.8249 879.349C42.232 874.171 37.4205 868.208 33.5409 861.647L47.1885 859.29C34.6561 855.725 23.9729 847.481 17.3477 836.261C33.4702 838.901 47.9899 847.74 60.0347 858.795C69.5931 867.959 78.2735 877.997 85.9627 888.777C89.8086 893.958 93.1698 899.481 96.004 905.277C103.382 920.645 116.44 952.725 116.416 971.134Z" fill="#455A64"/>
<path d="M212.233 783.321C212.197 783.502 212.133 783.677 212.044 783.839L211.384 785.301L208.721 790.887C206.363 795.601 203.04 802.673 198.986 811.417C190.877 828.789 180.129 853.067 169.616 880.362C159.104 907.658 150.76 932.808 144.961 951.075C142.109 960.244 139.87 967.575 138.361 972.831L136.546 978.795L136.051 980.327C136.051 980.657 135.863 980.845 135.839 980.822C135.816 980.798 135.839 980.633 135.839 980.28L136.216 978.724L137.772 972.737C139.139 967.551 141.26 960.079 144.018 950.887C149.51 932.478 157.784 907.257 168.343 879.915C178.903 852.572 189.769 828.341 198.09 811.04C202.239 802.39 205.703 795.436 208.178 790.675L211.054 785.183L211.832 783.792C211.947 783.62 212.081 783.462 212.233 783.321V783.321Z" fill="#263238"/>
<path d="M120.164 992.631C119.821 991.46 119.585 990.261 119.457 989.048C119.104 986.691 118.514 983.415 117.689 979.313C115.522 968.652 112.519 958.178 108.709 947.987C104.838 937.811 100.164 927.959 94.7311 918.524C92.6333 914.917 90.8891 912.018 89.6162 910.062C88.9218 909.063 88.3146 908.006 87.8013 906.903C88.6247 907.793 89.3663 908.756 90.0169 909.779C91.4076 911.688 93.2933 914.493 95.4854 918.1C101.168 927.453 105.981 937.307 109.864 947.54C113.716 957.788 116.62 968.369 118.538 979.148C119.245 983.297 119.716 986.644 119.928 989.001C120.108 990.202 120.187 991.416 120.164 992.631V992.631Z" fill="#263238"/>
<path d="M178.479 980.822H81.7437V1000.55H178.479V980.822Z" fill="#5677BA"/>
<path d="M90.96 1000.57L101.425 1066.93H159.881L169.64 1000.57H90.96Z" fill="#5677BA"/>
<path d="M172.539 1000.57C172.539 1000.9 154.248 1001.19 131.667 1001.19C109.086 1001.19 90.8184 1000.9 90.8184 1000.57C90.8184 1000.24 109.109 999.961 131.667 999.961C154.224 999.961 172.539 1000.22 172.539 1000.57Z" fill="#263238"/>
<path d="M593.823 1017.97V1066.9L692.538 1066.43C691.831 1056.51 637.641 1036.71 637.641 1036.71L638.725 1017.85L593.823 1017.97Z" fill="#455A64"/>
<g opacity="0.6">
<path d="M609.827 1032.28C608.866 1032.63 608.065 1033.32 607.571 1034.21C607.077 1035.11 606.924 1036.16 607.14 1037.16C607.365 1038.14 607.969 1039 608.82 1039.54C609.672 1040.08 610.702 1040.27 611.689 1040.06C612.708 1039.67 613.555 1038.94 614.075 1037.98C614.595 1037.02 614.752 1035.91 614.518 1034.85C614.344 1034.36 614.075 1033.91 613.727 1033.53C613.378 1033.14 612.957 1032.83 612.488 1032.61C612.019 1032.39 611.511 1032.27 610.993 1032.25C610.476 1032.23 609.959 1032.31 609.474 1032.49" fill="white"/>
</g>
<path d="M593.823 1066.9V1059.1L688.107 1060.21C688.107 1060.21 693.009 1063.16 692.562 1066.43L593.823 1066.9Z" fill="#263238"/>
<path d="M637.688 1037.65C637.688 1038.17 635.331 1038.43 632.974 1040.01C630.617 1041.59 629.415 1043.83 628.967 1043.64C628.519 1043.45 629.203 1040.48 632.055 1038.52C634.907 1036.57 637.783 1037.18 637.688 1037.65Z" fill="#263238"/>
<path d="M650.629 1042.18C650.629 1042.67 648.672 1043.57 647.07 1045.74C645.467 1047.9 645.042 1050.19 644.571 1050.17C644.1 1050.14 643.746 1047.29 645.773 1044.63C647.8 1041.96 650.605 1041.71 650.629 1042.18Z" fill="#263238"/>
<path d="M656.451 1054.65C656.003 1054.76 655.296 1052.29 656.451 1049.44C657.606 1046.58 659.868 1045.5 660.081 1045.92C660.293 1046.35 658.926 1047.86 657.983 1050.17C657.04 1052.48 656.922 1054.6 656.451 1054.65Z" fill="#263238"/>
<path d="M636.722 1023.72C636.533 1024.19 634.365 1023.53 631.607 1023.72C628.849 1023.91 626.893 1024.9 626.563 1024.45C626.233 1024 628.307 1022.09 631.489 1021.95C634.671 1021.81 636.958 1023.32 636.722 1023.72Z" fill="#263238"/>
<path d="M637.288 1039.84C637.554 1038.87 637.626 1037.85 637.5 1036.85C637.285 1034.1 636.385 1031.45 634.883 1029.14C633.857 1027.56 632.546 1026.17 631.018 1025.06C630.567 1024.68 630.021 1024.42 629.436 1024.32C628.852 1024.21 628.25 1024.27 627.694 1024.48C627.116 1024.8 626.632 1025.26 626.289 1025.83C625.946 1026.4 625.756 1027.04 625.738 1027.7C625.89 1030.26 626.795 1032.71 628.339 1034.75C629.883 1036.79 631.996 1038.32 634.412 1039.16C636.777 1039.91 639.312 1039.93 641.69 1039.23C644.069 1038.52 646.181 1037.12 647.753 1035.2C648.525 1034.31 649.125 1033.29 649.521 1032.18C649.722 1031.55 649.722 1030.86 649.521 1030.23C649.411 1029.91 649.234 1029.62 649.002 1029.37C648.771 1029.13 648.489 1028.94 648.177 1028.81C647.155 1028.51 646.055 1028.62 645.113 1029.12C644.296 1029.49 643.508 1029.92 642.756 1030.41C640.539 1031.9 638.627 1033.8 637.123 1036C636.508 1036.78 636.044 1037.67 635.755 1038.62C637.8 1035.75 640.347 1033.27 643.275 1031.31C644.595 1030.56 646.339 1029.47 647.729 1029.97C648.342 1030.2 648.578 1030.93 648.295 1031.78C647.936 1032.7 647.409 1033.55 646.74 1034.28C645.314 1035.98 643.417 1037.21 641.29 1037.83C639.163 1038.44 636.9 1038.41 634.789 1037.75C632.678 1037 630.823 1035.67 629.441 1033.91C628.06 1032.15 627.208 1030.03 626.987 1027.8C626.97 1027.37 627.069 1026.95 627.272 1026.58C627.475 1026.21 627.776 1025.89 628.142 1025.68C628.517 1025.56 628.917 1025.53 629.304 1025.61C629.691 1025.68 630.053 1025.85 630.358 1026.1C631.784 1027.09 633.022 1028.33 634.011 1029.75C635.496 1031.86 636.487 1034.28 636.91 1036.83C637.217 1038.78 637.17 1039.84 637.288 1039.84Z" fill="#263238"/>
<path d="M557.783 1025.04L559.456 1037.65L558.348 1066.05L521.342 1066.95L520.022 1037.65L524.218 1020.23L557.783 1025.04Z" fill="#455A64"/>
<path d="M540.057 1063.91C539.821 1063.91 540.364 1055.24 541.236 1044.51C542.108 1033.79 543.027 1025.06 543.239 1025.04C543.451 1025.02 542.933 1033.74 542.061 1044.46C541.189 1055.19 540.269 1063.91 540.057 1063.91Z" fill="#263238"/>
<path d="M558.49 1061.32L521.106 1061.76V1066.95L558.513 1066.93L558.49 1061.32Z" fill="#263238"/>
<path d="M521.201 1044.98C521.201 1044.98 521.46 1044.39 522.144 1043.5C523.123 1042.21 524.229 1041.03 525.443 1039.96C527.228 1038.35 529.237 1037 531.407 1035.95C535.202 1034.1 539.494 1033.51 543.649 1034.28C547.804 1035.05 551.602 1037.13 554.483 1040.22C555.571 1041.43 556.484 1042.79 557.194 1044.25C557.494 1044.77 557.694 1045.33 557.783 1045.92C556.633 1044.1 555.34 1042.38 553.917 1040.76C550.216 1037.12 545.23 1035.07 540.034 1035.06C534.825 1035.21 529.83 1037.16 525.891 1040.57C522.851 1043.1 521.342 1045.12 521.201 1044.98Z" fill="#263238"/>
<path d="M539.892 232.232L539.609 360.128L594.506 362.744L596.109 331.63C596.109 331.63 615.602 335.496 620.623 317.488C623.852 305.914 622.98 216.51 622.98 216.51L539.892 232.232Z" fill="#B78876"/>
<path d="M630.145 225.49C621.495 227.965 619.609 241.99 619.609 241.99L606.056 271.949C599.15 266.551 589.863 266.857 588.118 279.02C586.846 287.788 597.759 289.556 597.759 289.556C591.395 300.375 587.105 309.12 577.842 319.397C567.895 330.593 562.238 331.701 551.395 331.842H539.421C539.421 331.842 533.552 312.821 522.709 265.278C510.688 212.526 573.057 219.315 584.63 205.856C603.463 183.958 657.464 217.688 630.145 225.49Z" fill="#263238"/>
<path d="M645.372 213.988C644.895 211.174 643.429 208.624 641.238 206.796C639.047 204.968 636.275 203.983 633.422 204.017C634.314 202.514 634.647 200.744 634.362 199.019C634.078 197.295 633.194 195.726 631.866 194.589C630.488 193.506 628.891 192.735 627.186 192.328C625.482 191.921 623.709 191.888 621.99 192.232C618.552 192.927 615.233 194.118 612.137 195.767C610.98 192.349 608.748 189.397 605.773 187.352C602.572 185.477 598.896 184.568 595.19 184.736C578.337 184.736 569.474 196.262 560.423 208.024C559.102 210.216 557.212 212.008 554.954 213.21C553.311 213.693 551.596 213.884 549.886 213.776C543.447 213.98 537.176 215.878 531.705 219.28C526.234 222.682 521.757 227.466 518.726 233.151C512.833 244.536 508.425 270.864 523.699 287.364L532.892 307.894L620.882 238.171C621.519 238.501 627.034 241.189 631.277 238.973C641.813 233.41 637.382 224.17 637.382 224.17C638.23 223.581 646.268 219.645 645.372 213.988Z" fill="#263238"/>
<path d="M563.934 282.603C564.669 285.812 564.564 289.157 563.628 292.314C563.133 295.573 561.792 298.645 559.739 301.224C559.362 301.035 561.129 297.123 562.261 292.008C563.392 286.893 563.534 282.603 563.934 282.603Z" fill="#455A64"/>
<path d="M570.582 276.309C571.042 279.455 570.866 282.661 570.063 285.738C569.712 288.874 568.726 291.905 567.164 294.648C567.396 291.551 567.908 288.482 568.696 285.478C569.034 282.369 569.665 279.299 570.582 276.309Z" fill="#455A64"/>
<path d="M589.58 255.19C589.721 255.378 588.166 256.51 586.186 258.82C583.662 261.879 581.663 265.336 580.269 269.049C578.917 272.805 577.822 276.648 576.993 280.552C576.761 282.18 576.3 283.767 575.626 285.266C575.526 283.582 575.661 281.893 576.027 280.246C576.585 276.223 577.573 272.272 578.973 268.46C580.408 264.594 582.622 261.063 585.479 258.089C586.596 256.811 588.002 255.817 589.58 255.19V255.19Z" fill="#455A64"/>
<path d="M597.264 240.835C597.429 240.835 597.995 242.061 598.348 244.276C598.746 247.196 598.578 250.165 597.853 253.021C597.163 255.883 595.905 258.576 594.153 260.941C592.809 262.756 591.795 263.628 591.583 263.51C591.371 263.392 594.954 259.102 596.51 252.691C598.065 246.28 596.84 240.882 597.264 240.835Z" fill="#455A64"/>
<path d="M531.76 272.774C531.572 273.127 529.898 272.538 528.013 271.477C526.127 270.417 524.736 269.309 524.925 268.955C525.113 268.602 526.787 269.214 528.673 270.275C530.558 271.336 531.949 272.444 531.76 272.774Z" fill="#455A64"/>
<path d="M558.278 259.126C558.492 261.111 557.935 263.103 556.722 264.689C555.025 267.494 552.738 268.955 552.503 268.672C552.267 268.389 553.988 266.551 555.52 263.958C557.052 261.365 557.877 259.032 558.278 259.126Z" fill="#455A64"/>
<path d="M566.433 254.742C566.405 257.157 565.576 259.495 564.076 261.389C561.884 264.736 559.126 266.527 558.914 266.103C558.702 265.679 560.87 263.746 562.921 260.517C563.979 258.525 565.151 256.597 566.433 254.742Z" fill="#455A64"/>
<path d="M606.975 201.141C606.975 201.141 605.938 200.364 603.958 199.232C601.124 197.729 597.973 196.921 594.765 196.875C590.01 196.749 585.319 198.001 581.259 200.481C576.383 203.685 572.426 208.104 569.78 213.304C567.754 217.109 566.172 221.135 565.066 225.302L564.83 226.103L564.1 225.702C560.32 223.724 556.132 222.651 551.866 222.567C548.481 222.49 545.107 223.001 541.896 224.076C539.038 225.136 536.303 226.503 533.74 228.154C534.269 227.523 534.888 226.975 535.579 226.527C537.432 225.178 539.462 224.091 541.613 223.298C544.887 222.051 548.363 221.42 551.866 221.436C556.341 221.425 560.754 222.484 564.736 224.524L563.77 224.948C564.859 220.678 566.441 216.549 568.484 212.644C571.243 207.231 575.402 202.657 580.529 199.397C584.793 196.856 589.714 195.635 594.671 195.885C598.01 196.028 601.257 197.027 604.1 198.784C604.858 199.264 605.561 199.825 606.197 200.458C606.787 200.882 606.999 201.118 606.975 201.141Z" fill="#455A64"/>
<path d="M635.849 208.118C635.732 208.118 637.358 207.694 638.984 209.533C639.454 210.081 639.808 210.719 640.027 211.407C640.246 212.095 640.324 212.821 640.257 213.54C640.114 214.498 639.75 215.411 639.194 216.204C638.638 216.998 637.904 217.651 637.052 218.112C635.027 219.261 632.64 219.59 630.381 219.032C627.897 218.378 625.566 217.24 623.522 215.685C621.376 213.973 619.125 212.398 616.781 210.97C614.245 209.599 611.508 208.636 608.672 208.118C603.163 207.126 597.494 207.515 592.172 209.25C587.802 210.69 583.677 212.788 579.939 215.473C573.528 220.069 570.369 223.934 570.157 223.722C570.791 222.745 571.526 221.836 572.349 221.012C574.508 218.686 576.875 216.564 579.421 214.671C583.179 211.804 587.373 209.56 591.843 208.024C597.377 206.148 603.299 205.71 609.049 206.751C612.028 207.299 614.9 208.318 617.558 209.768C619.929 211.191 622.204 212.765 624.37 214.483C626.267 215.974 628.437 217.079 630.758 217.735C632.747 218.282 634.87 218.055 636.698 217.099C637.438 216.722 638.082 216.182 638.584 215.521C639.086 214.86 639.433 214.094 639.597 213.28C639.767 212.02 639.437 210.742 638.678 209.721C637.955 208.868 636.953 208.3 635.849 208.118Z" fill="#455A64"/>
<path d="M891.595 306.291C889.52 304.453 861.565 316.168 861.565 316.168C861.565 316.168 840.705 332.667 832.125 342.214L826.822 346.621L747.482 408.307L649.898 367.717L628.684 422.143C628.684 422.143 738.242 465.773 754.93 458.301C773.056 450.192 840.587 379.503 840.752 379.267L850.51 369.839C850.51 369.839 855.672 369.839 859.585 369.509C863.498 369.179 874.953 361.66 874.953 361.66C876.041 359.568 876.789 357.316 877.169 354.989C877.409 354.062 877.33 353.082 876.945 352.206C876.56 351.329 875.892 350.608 875.048 350.157C875.446 348.345 875.51 346.476 875.236 344.641C874.789 341.53 870.522 337.924 870.522 337.924C871.852 336.569 872.76 334.858 873.139 332.997C874.081 329.391 869.438 325.926 869.438 325.926C869.438 325.926 885.678 314.895 889.615 312.938C893.551 310.982 893.669 308.13 891.595 306.291Z" fill="#B78876"/>
<path d="M664.253 863.815C664.583 860.233 664.748 857.475 664.748 855.754L675.779 679.844C675.779 679.844 666.516 628.459 662.131 614.835L622.744 599.585L570.252 620.021C569.922 615.802 569.71 613.185 569.71 613.185L492.468 639.915C492.468 639.915 490.464 692.643 492.468 708.695C493.128 713.857 495.131 727.175 497.583 742.873C497.583 742.873 500.081 776.98 500.6 778.889C502.462 785.843 502.957 802.884 502.957 819.95C502.957 841.635 504.135 867.445 505.502 879.702C506.869 891.959 507.506 1026.88 507.506 1026.88H564.548L571.878 812.006C573.104 788.978 574.942 753.763 576.121 728.282L589.509 807.622C589.509 810.522 597.665 855.896 597.665 855.896C595.782 870.175 594.617 884.54 594.176 898.936C593.233 939.007 588.543 1026.88 588.543 1026.88H644.359C644.359 1026.88 661.141 899.879 664.394 863.815H664.253Z" fill="#263238"/>
<path d="M673.964 669.308C672.131 668.615 670.396 667.688 668.802 666.55C664.842 664.01 661.147 661.081 657.771 657.805C654.395 654.536 651.347 650.944 648.672 647.08C647.467 645.539 646.491 643.833 645.773 642.013C647.066 643.449 648.263 644.968 649.356 646.562C652.198 650.238 655.293 653.712 658.619 656.957C661.947 660.168 665.499 663.138 669.25 665.843C670.902 666.884 672.477 668.042 673.964 669.308V669.308Z" fill="#455A64"/>
<path d="M574.306 701.27C573.858 700.747 573.493 700.159 573.222 699.526C572.346 697.872 571.559 696.173 570.865 694.435C568.477 688.713 566.73 682.745 565.655 676.639C564.607 670.53 564.227 664.326 564.524 658.135C564.665 655.778 564.854 653.869 565.066 652.549C565.108 651.854 565.259 651.17 565.514 650.522C565.703 650.522 565.514 653.468 565.396 658.159C565.325 664.28 565.815 670.395 566.858 676.426C567.899 682.456 569.476 688.38 571.572 694.128C573.245 698.536 574.471 701.176 574.306 701.27Z" fill="#455A64"/>
<path d="M582.603 767.505C582.254 766.511 582.009 765.484 581.872 764.44C581.463 762.209 580.945 759.404 580.316 756.026C579.091 748.648 577.441 738.937 575.602 728.188C572.443 708.459 570.299 695.024 569.309 688.778C570.59 692.471 571.49 696.286 571.996 700.162C573.363 707.234 575.06 717.11 576.851 727.976C578.643 738.842 580.128 748.742 581.165 755.884C581.613 759.278 582.013 762.107 582.32 764.37C582.53 765.401 582.625 766.452 582.603 767.505V767.505Z" fill="#455A64"/>
<path d="M447.989 474.093C447.989 474.093 440.47 527.104 439.056 545.678C438.207 556.874 449.568 571.606 458.242 572.808C466.916 574.011 496.144 575.637 496.144 575.637L498.502 542.378L497.747 535.755L488.673 534.058L491.407 481.306L447.989 474.093Z" fill="#B78876"/>
<path d="M490.276 483.097C490.509 484.038 490.628 485.004 490.629 485.973C490.771 487.835 490.865 490.522 490.936 493.869C491.101 500.516 490.936 509.733 490.37 519.797C489.804 529.862 488.979 539.126 488.343 545.725C487.989 549.025 487.706 551.712 487.471 553.551C487.418 554.518 487.251 555.475 486.976 556.403C486.868 555.44 486.868 554.467 486.976 553.504C487.093 551.382 487.258 548.79 487.447 545.631C487.895 538.725 488.461 529.697 489.097 519.703C489.733 509.709 489.969 500.422 490.04 493.775C490.04 490.664 490.04 488.024 490.04 485.902C490.02 484.962 490.099 484.022 490.276 483.097V483.097Z" fill="#AA6550"/>
<g opacity="0.3">
<path d="M493.151 640.881C508.001 646.397 524.265 646.845 540.034 645.478C555.803 644.111 571.407 640.929 587.176 639.444C611.074 637.21 635.175 638.801 658.572 644.158C660.204 644.653 661.92 644.814 663.616 644.629C664.458 644.522 665.249 644.163 665.884 643.6C666.519 643.036 666.969 642.294 667.175 641.471C667.6 638.831 664.7 636.992 662.249 635.979C635.271 624.822 606.267 619.396 577.08 620.045C547.892 620.694 519.159 627.404 492.703 639.75" fill="black"/>
</g>
<path d="M720.517 391.807L636.792 350.134C623.59 348.585 610.292 348.002 597.005 348.389H541.589C541.589 348.389 474.459 368.189 463.357 386.456L434.577 472.726L491.477 481.306L498.549 543.298C498.549 543.298 491.477 615.071 491.477 625.49C491.323 630.315 491.615 635.144 492.35 639.915C492.35 639.915 606.197 622.614 634.223 631.736C662.249 640.858 669.815 639.915 669.815 639.915C669.815 639.915 667.458 610.121 665.408 592.773L658.949 506.268L654.235 440.269L706.916 456.392L720.517 391.807Z" fill="#EF7C8F"/>
<path d="M490.959 481.99C490.747 481.99 490.181 478.43 488.932 472.679C487.268 465.198 485.062 457.848 482.332 450.687C479.544 443.472 476.284 436.449 472.573 429.662L469.132 423.486C468.645 422.755 468.256 421.963 467.977 421.129C468.593 421.763 469.131 422.467 469.58 423.227C470.546 424.618 471.937 426.669 473.375 429.261C477.354 435.963 480.761 442.988 483.557 450.263C486.315 457.476 488.413 464.923 489.827 472.514C490.346 475.413 490.676 477.77 490.841 479.42C490.986 480.269 491.026 481.132 490.959 481.99Z" fill="#263238"/>
<path d="M598.325 506.48C598.281 506.878 598.177 507.267 598.018 507.635L596.958 510.817C596.486 512.207 595.897 513.881 595.119 515.814C594.341 517.747 593.516 519.962 592.432 522.319C590.381 527.034 587.718 532.738 584.371 538.819C581.024 544.9 577.064 551.359 572.585 557.912C568.107 564.464 563.157 570.381 558.702 575.613C554.247 580.846 549.792 585.254 545.974 588.837C544.112 590.675 542.297 592.207 540.765 593.551C539.232 594.894 537.842 596.097 536.71 597.016L534.07 599.09C533.773 599.351 533.449 599.581 533.104 599.774C533.104 599.774 533.363 599.444 533.929 598.901L536.404 596.544C537.488 595.602 538.761 594.399 540.317 592.962C541.872 591.524 543.569 589.968 545.384 588.106C549.109 584.476 553.351 579.95 557.854 574.765C562.356 569.579 567.023 563.592 571.595 557.11C576.168 550.628 580.081 544.146 583.381 538.253C586.681 532.361 589.486 526.704 591.631 521.966C592.762 519.609 593.634 517.417 594.459 515.531C595.284 513.645 595.968 511.995 596.51 510.628C597.052 509.261 597.429 508.271 597.783 507.517C597.92 507.15 598.102 506.802 598.325 506.48Z" fill="#263238"/>
<path d="M637.005 355.838C634.802 358.987 633.299 362.572 632.597 366.35C631.889 370.445 631.889 374.63 632.597 378.725C633.511 383.765 634.691 388.754 636.132 393.669C639.032 404.229 642.072 413.634 644.406 420.422C645.514 423.628 646.433 426.315 647.187 428.46C647.578 429.428 647.877 430.43 648.083 431.453C647.533 430.559 647.075 429.611 646.716 428.625C645.938 426.786 644.83 424.099 643.557 420.729C641.012 414.011 637.806 404.582 634.907 393.999C633.497 389.063 632.372 384.05 631.536 378.984C630.844 374.772 630.908 370.47 631.725 366.28C632.303 363.452 633.406 360.758 634.977 358.336C635.495 357.387 636.182 356.54 637.005 355.838V355.838Z" fill="#263238"/>
<path d="M479.032 446.657C477.791 447.998 476.259 449.038 474.554 449.697C470.548 451.536 466.092 452.16 461.736 451.494C457.379 450.828 453.313 448.901 450.04 445.95C448.614 444.82 447.468 443.376 446.693 441.73C446.858 441.589 448.084 443.262 450.606 445.29C453.887 447.942 457.814 449.674 461.985 450.308C466.156 450.941 470.421 450.454 474.342 448.896C477.241 447.717 478.914 446.492 479.032 446.657Z" fill="white"/>
<path d="M639.479 407.741C639.315 408.368 639.085 408.976 638.796 409.556C638.277 410.734 637.476 412.432 636.321 414.553C633.003 420.569 628.809 426.059 623.875 430.841C616.501 437.997 607.305 442.995 597.287 445.29C591.382 446.643 585.279 446.907 579.279 446.067C572.859 445.046 566.682 442.848 561.059 439.585C549.485 433.127 539.703 424.948 529.002 421.035C519.537 417.536 509.237 416.969 499.444 419.409C492.835 420.994 486.599 423.853 481.082 427.823C477.217 430.676 475.402 432.679 475.308 432.538C476.958 430.649 478.798 428.935 480.8 427.423C487.642 422.237 495.669 418.838 504.155 417.534C512.641 416.229 521.319 417.06 529.403 419.951C540.363 423.911 550.216 432.113 561.648 438.478C567.135 441.71 573.166 443.915 579.444 444.983C585.308 445.808 591.273 445.569 597.052 444.276C606.891 442.071 615.949 437.241 623.263 430.298C628.213 425.635 632.468 420.285 635.897 414.412C637.099 412.337 637.994 410.664 638.56 409.532C638.819 408.912 639.126 408.313 639.479 407.741Z" fill="white"/>
<path d="M691.902 377.5C692.368 378.366 692.732 379.283 692.986 380.234C693.763 382.784 694.222 385.42 694.353 388.083C694.81 397.011 691.985 405.797 686.41 412.785C683.171 416.371 679.656 419.697 675.897 422.732C672.947 425.207 670.54 428.265 668.826 431.713C667.667 434.035 667.123 436.616 667.246 439.208C667.388 441.047 667.788 442.037 667.671 442.06C667.553 442.084 667.506 441.848 667.317 441.377C667.05 440.695 666.868 439.982 666.775 439.255C666.452 436.558 666.884 433.825 668.024 431.359C669.681 427.748 672.093 424.533 675.096 421.931C678.754 418.881 682.195 415.581 685.396 412.055C690.778 405.267 693.621 396.814 693.434 388.154C693.253 384.563 692.74 380.996 691.902 377.5Z" fill="white"/>
<path d="M555.732 576.226C554.99 576.623 554.197 576.917 553.375 577.098C551.102 577.749 548.787 578.237 546.445 578.56C542.916 579.145 539.3 578.936 535.862 577.947C533.822 577.299 531.937 576.24 530.322 574.835C528.699 573.294 527.187 571.64 525.797 569.886C524.433 568.215 522.847 566.74 521.083 565.501C519.404 564.407 517.589 563.535 515.685 562.909C512.422 561.866 508.974 561.536 505.573 561.942C503.268 562.196 501.021 562.833 498.926 563.828C498.17 564.251 497.382 564.613 496.569 564.912C497.186 564.293 497.903 563.783 498.69 563.404C500.776 562.198 503.072 561.398 505.455 561.046C508.985 560.48 512.597 560.73 516.015 561.777C518.041 562.399 519.969 563.304 521.743 564.464C523.626 565.732 525.31 567.273 526.74 569.037C528.093 570.743 529.557 572.357 531.124 573.869C532.619 575.183 534.357 576.192 536.239 576.839C539.524 577.811 542.975 578.091 546.374 577.664C552.102 576.98 555.685 576.014 555.732 576.226Z" fill="white"/>
<path d="M664.135 571.205C663.911 571.448 663.657 571.662 663.38 571.842C662.627 572.407 661.839 572.927 661.023 573.398C658.095 575.185 654.918 576.527 651.595 577.381C646.602 578.665 641.407 578.969 636.297 578.277C629.995 577.424 624.012 574.992 618.902 571.205C614.047 567.284 609.404 563.106 604.995 558.689C601.388 555.183 597.211 552.313 592.644 550.204C589.578 548.783 586.241 548.044 582.862 548.035C580.505 548.035 579.138 548.436 579.114 548.295C579.415 548.154 579.731 548.051 580.057 547.988C580.966 547.743 581.898 547.593 582.838 547.54C586.322 547.383 589.796 548.02 592.998 549.402C597.713 551.45 602.03 554.315 605.749 557.864C610.063 561.683 614.353 566.326 619.633 570.216C624.581 573.853 630.356 576.202 636.439 577.051C641.414 577.772 646.48 577.572 651.383 576.462C654.664 575.681 657.833 574.485 660.811 572.903C661.883 572.269 662.993 571.702 664.135 571.205Z" fill="white"/>
<path d="M864.488 235.343C847.368 227.154 832.425 215.037 820.875 199.979C809.325 184.92 801.495 167.347 798.023 148.69C794.551 130.033 795.534 110.819 800.894 92.6138C806.254 74.4088 815.838 57.7271 828.865 43.9275C841.893 30.1278 857.996 19.6005 875.863 13.2028C893.73 6.80515 912.855 4.71811 931.681 7.11166C950.507 9.50521 968.502 16.3117 984.199 26.9767C999.896 37.6417 1012.85 51.8636 1022.01 68.4842V68.4842C1034.35 90.8357 1039.27 116.528 1036.05 141.855C1032.84 167.182 1021.67 190.834 1004.14 209.398C986.615 227.962 963.645 240.478 938.545 245.142C913.445 249.805 887.512 246.374 864.488 235.343V235.343ZM964.947 25.2315C940.768 13.6895 913.26 11.1655 887.384 18.1148C861.508 25.064 838.965 41.0291 823.821 63.1318C808.677 85.2345 801.928 112.02 804.79 138.66C807.652 165.3 819.937 190.041 839.431 208.422C858.924 226.804 884.343 237.616 911.105 238.91C937.867 240.204 964.211 231.895 985.387 215.48C1006.56 199.065 1021.18 175.625 1026.6 149.386C1032.02 123.146 1027.88 95.8342 1014.94 72.3734C1003.61 51.8244 986.126 35.3393 964.947 25.2315V25.2315Z" fill="#263238"/>
<path d="M1067.86 367.199C1064.47 369.279 1060.4 369.934 1056.54 369.019C1052.67 368.105 1049.33 365.696 1047.23 362.32L968.436 234.589C968.077 234.01 967.962 233.313 968.117 232.65C968.272 231.987 968.683 231.413 969.261 231.053L986.067 220.682C986.639 220.332 987.325 220.218 987.98 220.363C988.635 220.508 989.208 220.901 989.579 221.46L1072.45 345.985C1073.59 347.664 1074.38 349.558 1074.77 351.55C1075.15 353.543 1075.13 355.593 1074.7 357.577C1074.27 359.56 1073.44 361.436 1072.27 363.09C1071.09 364.744 1069.59 366.142 1067.86 367.199V367.199Z" fill="#263238"/>
<path d="M867.387 229.262C850.257 221.077 835.303 208.961 823.743 193.901C812.183 178.841 804.345 161.263 800.866 142.599C797.388 123.935 798.368 104.714 803.727 86.5004C809.086 68.2872 818.672 51.5977 831.703 37.7916C844.735 23.9856 860.845 13.4536 878.719 7.05382C896.593 0.654038 915.726 -1.4325 934.559 0.964227C953.392 3.36095 971.393 10.1731 987.094 20.8457C1002.8 31.5183 1015.75 45.7493 1024.91 62.3793V62.3793C1037.24 84.7321 1042.15 110.423 1038.94 135.746C1035.72 161.07 1024.55 184.719 1007.02 203.282C989.502 221.845 966.537 234.364 941.441 239.033C916.344 243.702 890.414 240.281 867.387 229.262V229.262ZM967.847 19.1502C943.667 7.60813 916.16 5.08419 890.283 12.0334C864.407 18.9826 841.865 34.9478 826.721 57.0505C811.577 79.1532 804.827 105.939 807.689 132.579C810.551 159.219 822.837 183.96 842.33 202.341C861.823 220.722 887.243 231.535 914.004 232.829C940.766 234.123 967.11 225.814 988.286 209.399C1009.46 192.984 1024.08 169.544 1029.5 143.304C1034.92 117.065 1030.78 89.7528 1017.84 66.2921C1006.51 45.7431 989.025 29.258 967.847 19.1502V19.1502Z" fill="#455A64"/>
<path d="M969.985 226.16L991.109 213.129L1074.9 348.962C1076.54 351.622 1077.06 354.825 1076.34 357.867C1075.62 360.908 1073.72 363.539 1071.06 365.18L1069.84 365.935C1067.18 367.576 1063.97 368.093 1060.93 367.372C1057.89 366.652 1055.26 364.752 1053.62 362.092L969.824 226.26L969.985 226.16Z" fill="#455A64"/>
<path d="M829.391 91.9374C829.502 90.6792 829.723 89.4331 830.051 88.2132C830.329 86.7614 830.699 85.3286 831.158 83.9233C831.692 82.0304 832.321 80.1659 833.044 78.337L834.246 75.1549C834.694 74.0471 835.283 72.9628 835.826 71.7842C836.886 69.4272 838.324 67.0701 839.762 64.5951C843.106 59.2867 846.976 54.3276 851.312 49.7925C855.728 45.3467 860.576 41.3514 865.784 37.8656C868.071 36.3731 870.431 34.9964 872.855 33.7407C873.987 33.1514 875.071 32.5386 876.155 32.0436L879.314 30.7001C881.115 29.926 882.956 29.2493 884.83 28.673C886.223 28.1711 887.648 27.7617 889.096 27.4473C890.31 27.1028 891.546 26.8429 892.796 26.6694C891.634 27.1602 890.437 27.562 889.214 27.8716C887.797 28.262 886.404 28.7342 885.042 29.2858C883.205 29.9127 881.404 30.6366 879.644 31.4543L876.556 32.845C875.472 33.34 874.411 33.9764 873.303 34.5657C870.946 35.7207 868.778 37.2292 866.35 38.7378C861.267 42.2019 856.531 46.1487 852.207 50.5232C847.927 54.9951 844.084 59.8649 840.728 65.0665C839.29 67.4236 837.829 69.7807 836.745 72.1378C836.203 73.2692 835.59 74.3299 835.118 75.4142L833.798 78.5491C832.903 80.5055 832.361 82.3912 831.771 84.0176C831.265 85.398 830.84 86.8068 830.498 88.2368C830.229 89.498 829.858 90.7355 829.391 91.9374V91.9374Z" fill="#E0E0E0"/>
</svg>
