<svg width="1604" height="1549" viewBox="0 0 1604 1549" fill="none" xmlns="http://www.w3.org/2000/svg">
<path d="M1216.2 412.122C1109.54 398.829 999.974 453.576 896.077 426.115C739.463 384.557 680.483 184.53 537.512 108.269C433.685 52.8926 297.885 76.7853 208.017 152.661C118.148 228.537 72.3565 348.735 71.5869 466.415C70.8173 584.094 113.565 710.729 172.475 812.736C247.422 934.164 358.562 1029.03 490.251 1083.99C656.485 1152.73 851.3 1171.44 1020.05 1142.51C1139.66 1121.91 1256.74 1071.71 1341.89 985.092C1427.03 898.477 1476.36 773.101 1455.65 653.533C1434.94 533.965 1336.6 427.095 1216.2 412.122Z" fill="#EBEBEB"/>
<path d="M1508.75 1494.11C1508.75 1494.6 1176.11 1495.02 765.874 1495.02C355.64 1495.02 22.9268 1494.6 22.9268 1494.11C22.9268 1493.63 355.5 1493.17 765.874 1493.17C1176.25 1493.17 1508.75 1493.59 1508.75 1494.11Z" fill="#263238"/>
<path d="M423.331 1381.89L426.164 1468.93L448.273 1537.14C448.65 1538.3 448.785 1539.53 448.669 1540.75C448.553 1541.96 448.188 1543.14 447.598 1544.21C447.008 1545.28 446.204 1546.22 445.237 1546.96C444.27 1547.71 443.16 1548.25 441.976 1548.55V1548.55C440.595 1548.9 439.15 1548.92 437.762 1548.59C436.374 1548.27 435.083 1547.62 434 1546.69C420.007 1534.69 368.829 1490.34 368.969 1483.97C368.969 1476.55 359.838 1392.32 359.838 1392.32L423.331 1381.89Z" fill="#EF7C8F"/>
<path d="M441.976 1548.44L368.514 1477.99L368.724 1481.49C368.894 1484.68 370.196 1487.7 372.397 1490.02C378.274 1496.18 394.89 1512.9 433.65 1546.41C434.76 1547.38 436.092 1548.05 437.527 1548.38C438.961 1548.7 440.454 1548.66 441.871 1548.27L441.976 1548.44Z" fill="#E0E0E0"/>
<path d="M384.92 1448.92C386.043 1449.65 386.854 1450.77 387.197 1452.06C387.54 1453.35 387.389 1454.73 386.774 1455.91C386.099 1457.1 384.984 1457.96 383.673 1458.32C382.362 1458.68 380.961 1458.51 379.778 1457.84C378.59 1457.07 377.731 1455.89 377.368 1454.53C377.006 1453.16 377.167 1451.71 377.819 1450.46C378.656 1449.34 379.893 1448.6 381.27 1448.37C382.646 1448.15 384.055 1448.47 385.2 1449.27" fill="white"/>
<path d="M419.973 1511.57C420.462 1511.78 422.176 1507.09 427.214 1504.36C430.33 1502.93 433.687 1502.08 437.114 1501.88C437.114 1501.67 436.064 1501.08 434 1500.9C431.304 1500.73 428.616 1501.35 426.269 1502.69C423.92 1504 422.001 1505.97 420.742 1508.35C419.798 1510.21 419.763 1511.5 419.973 1511.57Z" fill="#263238"/>
<path d="M426.829 1522.87C429.23 1521.31 431.73 1519.91 434.315 1518.67C437.091 1517.99 439.907 1517.47 442.746 1517.13C441.364 1516.36 439.813 1515.93 438.228 1515.89C436.644 1515.84 435.072 1516.19 433.65 1516.89C428.613 1518.67 426.514 1522.66 426.829 1522.87Z" fill="#263238"/>
<path d="M407.589 1497.33C411.134 1494.67 414.863 1492.26 418.748 1490.13C422.894 1488.57 427.15 1487.32 431.482 1486.38C426.87 1485.75 422.173 1486.44 417.942 1488.38C413.71 1490.32 410.119 1493.43 407.589 1497.33V1497.33Z" fill="#263238"/>
<path d="M404.51 1470.89C404.79 1471.38 409.478 1469.1 415.704 1468.54C421.931 1467.98 427.004 1469.17 427.144 1468.54C423.632 1466.52 419.519 1465.8 415.53 1466.51C411.459 1466.64 407.562 1468.19 404.51 1470.89V1470.89Z" fill="#263238"/>
<path d="M403.041 1445.35C406.757 1443.91 410.652 1442.98 414.62 1442.59C418.602 1442.79 422.535 1443.56 426.304 1444.86C426.304 1444.65 425.429 1443.64 423.366 1442.59C420.631 1441.27 417.621 1440.62 414.585 1440.7C411.546 1440.75 408.562 1441.52 405.875 1442.94C403.881 1444.09 402.901 1445.18 403.041 1445.35Z" fill="#263238"/>
<path d="M414.2 1437.86C414.47 1436.71 414.47 1435.52 414.2 1434.37C413.735 1431.37 412.689 1428.49 411.122 1425.9C410.107 1423.92 408.49 1422.32 406.504 1421.32C405.818 1421.04 405.062 1420.99 404.346 1421.18C403.629 1421.36 402.989 1421.76 402.517 1422.33C401.633 1423.48 401.219 1424.92 401.362 1426.35C401.722 1429.26 403.087 1431.96 405.22 1433.97C407.352 1435.98 410.12 1437.18 413.046 1437.37C415.953 1437.52 418.837 1436.8 421.33 1435.3C423.822 1433.79 425.81 1431.58 427.039 1428.94C427.341 1428.28 427.498 1427.56 427.498 1426.83C427.498 1426.1 427.341 1425.38 427.039 1424.71C426.664 1424.07 426.097 1423.57 425.418 1423.27C424.739 1422.98 423.984 1422.91 423.261 1423.07C421.148 1423.65 419.228 1424.78 417.699 1426.35C415.445 1428.34 413.561 1430.71 412.137 1433.35C411.535 1434.28 411.141 1435.33 410.982 1436.43C413.056 1433.03 415.614 1429.96 418.573 1427.3C419.972 1426 421.664 1425.05 423.506 1424.54C423.902 1424.45 424.316 1424.48 424.688 1424.65C425.06 1424.81 425.369 1425.09 425.57 1425.45C425.73 1425.89 425.797 1426.37 425.767 1426.85C425.737 1427.32 425.61 1427.78 425.395 1428.21C424.266 1430.45 422.52 1432.32 420.363 1433.59C418.205 1434.87 415.727 1435.5 413.221 1435.42C410.752 1435.23 408.416 1434.22 406.594 1432.55C404.771 1430.87 403.569 1428.63 403.181 1426.18C403.058 1425.18 403.307 1424.17 403.881 1423.35C404.131 1423.03 404.477 1422.8 404.867 1422.69C405.258 1422.58 405.672 1422.61 406.05 1422.75C407.74 1423.58 409.133 1424.91 410.038 1426.56C412.087 1430.05 413.497 1433.88 414.2 1437.86Z" fill="#263238"/>
<path d="M592.783 1394.7L588.271 1459.8C588.271 1459.8 652.952 1486.24 653.267 1498.28L526.737 1494.08L529.606 1392.35L592.783 1394.7Z" fill="#EF7C8F"/>
<path d="M549.336 1453.01C548.078 1453.33 546.983 1454.1 546.265 1455.18C545.546 1456.26 545.257 1457.57 545.453 1458.85C545.738 1460.1 546.488 1461.18 547.547 1461.89C548.607 1462.6 549.898 1462.88 551.155 1462.67C552.459 1462.31 553.586 1461.49 554.316 1460.35C555.046 1459.21 555.328 1457.84 555.108 1456.51C554.683 1455.25 553.786 1454.2 552.605 1453.59C551.424 1452.98 550.052 1452.84 548.776 1453.22" fill="#E0E0E0"/>
<path d="M526.737 1494.15L527.437 1483.9L648.51 1491.77C648.51 1491.77 654.037 1494.43 653.267 1498.35L526.737 1494.15Z" fill="#E0E0E0"/>
<path d="M590.369 1459.24C590.369 1459.83 587.221 1460.01 584.108 1461.9C580.994 1463.79 579.315 1466.34 578.755 1466.06C578.196 1465.78 579.21 1462.28 583.023 1460.04C586.836 1457.8 590.509 1458.85 590.369 1459.24Z" fill="#263238"/>
<path d="M603.453 1465.15C603.453 1465.74 600.864 1466.72 598.66 1469.28C596.456 1471.83 595.792 1474.56 595.162 1474.49C594.532 1474.42 594.287 1470.99 597.051 1467.84C599.815 1464.7 603.453 1464.56 603.453 1465.15Z" fill="#263238"/>
<path d="M610.449 1481.28C609.89 1481.28 609.12 1478.3 610.834 1474.94C612.548 1471.59 615.452 1470.36 615.697 1470.89C615.942 1471.41 614.123 1473.16 612.758 1475.92C611.394 1478.69 611.079 1481.24 610.449 1481.28Z" fill="#263238"/>
<path d="M589.74 1444.27C589.46 1444.83 586.661 1443.88 583.163 1444.02C579.665 1444.16 576.901 1445.14 576.586 1444.58C576.272 1444.02 578.965 1441.92 583.093 1441.85C587.221 1441.78 590.055 1443.81 589.74 1444.27Z" fill="#263238"/>
<path d="M590.405 1431.11C588.269 1431.65 586.023 1431.57 583.933 1430.87C581.655 1430.4 579.446 1429.65 577.357 1428.63C576.144 1428.02 574.975 1427.33 573.858 1426.57C573.156 1426.16 572.529 1425.64 572.004 1425.03C571.61 1424.58 571.378 1424.01 571.347 1423.41C571.315 1422.82 571.485 1422.23 571.829 1421.74C572.159 1421.32 572.579 1420.98 573.058 1420.75C573.537 1420.52 574.062 1420.41 574.593 1420.41C575.388 1420.43 576.176 1420.56 576.937 1420.79C578.283 1421.18 579.594 1421.68 580.855 1422.3C582.957 1423.33 584.882 1424.69 586.557 1426.32C589.39 1429.15 590.335 1431.46 590.055 1431.6C589.775 1431.74 588.376 1429.82 585.472 1427.47C583.797 1426.06 581.938 1424.89 579.945 1423.98C578.814 1423.47 577.644 1423.07 576.447 1422.75C575.118 1422.33 573.963 1422.3 573.614 1422.75C573.264 1423.21 573.439 1423.07 573.614 1423.45C574.017 1423.89 574.476 1424.28 574.978 1424.61C576.039 1425.33 577.137 1425.99 578.266 1426.6C580.194 1427.65 582.222 1428.5 584.318 1429.15C586.386 1429.68 588.419 1430.33 590.405 1431.11V1431.11Z" fill="#263238"/>
<path d="M589.565 1431.99C588.446 1430.13 587.933 1427.96 588.096 1425.8C588.085 1422.04 589.063 1418.35 590.929 1415.09C591.3 1414.27 591.878 1413.55 592.608 1413.02C593.338 1412.48 594.194 1412.15 595.092 1412.05C595.655 1412.08 596.197 1412.27 596.656 1412.6C597.114 1412.93 597.47 1413.38 597.681 1413.9C597.984 1414.65 598.172 1415.44 598.241 1416.25C598.47 1417.66 598.47 1419.1 598.241 1420.51C597.827 1422.87 596.829 1425.08 595.337 1426.95C592.749 1430.17 590.16 1430.83 590.09 1430.45C590.02 1430.06 592.084 1429.01 594.113 1425.94C595.255 1424.15 596.007 1422.15 596.317 1420.06C596.474 1418.84 596.474 1417.6 596.317 1416.39C596.142 1415.02 595.687 1413.94 595.162 1414.04C594.638 1414.15 593.448 1414.99 592.888 1416.07C592.217 1417.18 591.655 1418.35 591.209 1419.57C590.429 1421.59 589.945 1423.71 589.775 1425.87C589.32 1429.57 589.915 1431.92 589.565 1431.99Z" fill="#263238"/>
<path d="M332.657 752.287L351.338 1452.07L451.176 1449.09L474.964 728.43L332.657 752.287Z" fill="#263238"/>
<path d="M540.136 727.24C540.136 727.24 614.227 1023.89 616.501 1074.47C618.775 1125.06 600.654 1441.36 600.654 1441.36H502.915L511.101 1081.05L437.009 776.495L454.955 728.814L540.136 727.24Z" fill="#263238"/>
<path d="M479.827 763.656C479.864 763.982 479.864 764.31 479.827 764.636V767.399C479.827 769.988 479.617 773.521 479.442 778.069C479.022 787.444 478.392 800.807 477.658 817.249C475.944 850.447 473.6 896.098 471.011 946.682C468.423 997.266 465.694 1042.71 464.015 1075.91C463.035 1092.35 462.196 1105.68 461.636 1115.09C461.321 1119.6 461.076 1123.17 460.901 1125.58C460.901 1126.7 460.726 1127.64 460.657 1128.34C460.694 1128.66 460.694 1128.97 460.657 1129.29C460.618 1128.97 460.618 1128.66 460.657 1128.34C460.657 1127.61 460.657 1126.7 460.657 1125.58C460.657 1122.99 460.901 1119.42 461.076 1114.91C461.496 1105.54 462.126 1092.17 462.86 1075.73C464.575 1042.53 466.918 996.881 469.472 946.297C472.026 895.713 474.789 850.272 476.643 817.074C477.623 800.632 478.427 787.304 479.022 777.929C479.337 773.416 479.582 769.848 479.757 767.259C479.757 766.14 479.932 765.231 480.002 764.496C479.896 764.228 479.837 763.944 479.827 763.656V763.656Z" fill="#455A64"/>
<path d="M468.842 346.846C468.842 346.846 505.118 526.793 505.643 577.482C506.168 628.171 523.974 727.24 523.974 727.24H367.044L363.546 453.086L352.352 371.333L375.93 337.681L468.842 346.846Z" fill="#F5F5F5"/>
<path d="M470.766 352.128C470.766 352.128 508.232 363.148 518.132 377.001C525.933 387.95 536.497 594.903 536.497 594.903L552.449 777.229L536.742 775.76L514.564 707.51L470.766 352.128Z" fill="#EF7C8F"/>
<path d="M518.132 377L623.917 474.075L754.085 431.887L780.042 486.564L641.128 549.532C621.294 557.997 608.84 553.345 595.057 542.29L522.19 483.94L518.132 377Z" fill="#EF7C8F"/>
<path d="M729.878 449.308C730.226 449.983 730.297 450.767 730.075 451.492C729.853 452.218 729.355 452.828 728.688 453.191C728.358 453.368 727.996 453.477 727.623 453.513C727.25 453.549 726.874 453.51 726.516 453.399C726.158 453.289 725.826 453.108 725.538 452.869C725.251 452.629 725.013 452.334 724.84 452.002C724.658 451.675 724.543 451.314 724.502 450.942C724.461 450.569 724.496 450.193 724.603 449.834C724.711 449.475 724.89 449.141 725.129 448.853C725.368 448.564 725.662 448.327 725.995 448.154C726.665 447.803 727.446 447.727 728.171 447.942C728.896 448.158 729.509 448.648 729.878 449.308V449.308Z" fill="#263238"/>
<path d="M727.359 453.611C727.07 453.664 726.774 453.664 726.484 453.611C726.113 453.499 725.767 453.315 725.466 453.069C725.166 452.823 724.918 452.52 724.735 452.177C724.386 451.484 724.311 450.684 724.526 449.938C724.767 449.201 725.284 448.586 725.969 448.221C726.653 447.856 727.452 447.769 728.199 447.979C728.948 448.208 729.576 448.723 729.948 449.413C730.312 450.102 730.387 450.908 730.158 451.652C730.05 452.026 729.867 452.373 729.62 452.674C729.374 452.975 729.068 453.222 728.723 453.401C728.294 453.587 727.824 453.659 727.359 453.611V453.611ZM727.359 447.909C726.909 447.914 726.466 448.021 726.065 448.224C725.426 448.58 724.95 449.169 724.735 449.868C724.525 450.568 724.601 451.323 724.945 451.967C725.293 452.612 725.883 453.092 726.585 453.302C727.287 453.511 728.044 453.434 728.688 453.086C729.007 452.922 729.289 452.694 729.518 452.418C729.746 452.141 729.916 451.821 730.018 451.477C730.23 450.766 730.155 450 729.808 449.343C729.572 448.899 729.219 448.527 728.788 448.268C728.356 448.009 727.862 447.873 727.359 447.874V447.909Z" fill="#263238"/>
<path d="M740.792 446.72C741.14 447.394 741.211 448.178 740.989 448.904C740.767 449.63 740.269 450.24 739.602 450.603C739.272 450.779 738.91 450.889 738.537 450.924C738.164 450.96 737.788 450.921 737.43 450.811C737.072 450.7 736.74 450.52 736.452 450.28C736.165 450.04 735.927 449.746 735.754 449.413C735.572 449.086 735.457 448.726 735.416 448.353C735.375 447.981 735.41 447.604 735.517 447.245C735.625 446.886 735.804 446.553 736.043 446.264C736.282 445.976 736.576 445.738 736.909 445.565C737.239 445.382 737.602 445.267 737.977 445.225C738.352 445.184 738.731 445.218 739.093 445.326C739.455 445.433 739.791 445.612 740.083 445.852C740.375 446.091 740.616 446.386 740.792 446.72V446.72Z" fill="#263238"/>
<path d="M738.274 451.022C737.984 451.076 737.688 451.076 737.399 451.022C737.027 450.911 736.681 450.726 736.381 450.48C736.081 450.234 735.832 449.931 735.65 449.588C735.29 448.896 735.216 448.089 735.445 447.343C735.674 446.597 736.188 445.971 736.874 445.6C737.567 445.24 738.373 445.167 739.119 445.396C739.865 445.625 740.491 446.138 740.862 446.824C741.226 447.513 741.302 448.319 741.072 449.063C740.843 449.813 740.328 450.441 739.638 450.812C739.204 450.982 738.738 451.054 738.274 451.022V451.022ZM738.274 445.285C737.821 445.303 737.379 445.423 736.979 445.635C736.335 445.983 735.855 446.573 735.645 447.275C735.435 447.977 735.512 448.733 735.86 449.378C736.027 449.702 736.259 449.987 736.542 450.216C736.825 450.445 737.153 450.612 737.504 450.707C737.859 450.843 738.239 450.904 738.619 450.886C738.998 450.868 739.37 450.771 739.711 450.603C740.052 450.435 740.355 450.198 740.6 449.907C740.845 449.617 741.028 449.279 741.136 448.914C741.245 448.55 741.277 448.167 741.231 447.79C741.185 447.412 741.061 447.048 740.868 446.721C740.675 446.393 740.416 446.109 740.108 445.886C739.8 445.663 739.45 445.506 739.078 445.425C738.806 445.339 738.524 445.291 738.239 445.285H738.274Z" fill="#263238"/>
<path d="M751.146 444.621C751.33 444.951 751.445 445.314 751.486 445.689C751.527 446.064 751.493 446.443 751.386 446.805C751.278 447.167 751.099 447.503 750.86 447.795C750.621 448.087 750.326 448.328 749.992 448.504C749.318 448.852 748.534 448.923 747.808 448.701C747.082 448.478 746.472 447.981 746.109 447.314C745.932 446.984 745.823 446.622 745.787 446.249C745.752 445.876 745.79 445.5 745.901 445.142C746.011 444.784 746.192 444.452 746.432 444.164C746.672 443.877 746.966 443.639 747.298 443.466C747.625 443.284 747.986 443.169 748.358 443.128C748.731 443.087 749.108 443.122 749.466 443.229C749.825 443.337 750.159 443.516 750.447 443.755C750.736 443.994 750.974 444.288 751.146 444.621V444.621Z" fill="#263238"/>
<path d="M748.663 448.923C748.374 448.977 748.078 448.977 747.789 448.923C747.08 448.697 746.483 448.21 746.12 447.56C745.756 446.911 745.652 446.148 745.83 445.425C745.938 445.056 746.121 444.714 746.368 444.419C746.615 444.124 746.92 443.883 747.264 443.711C747.604 443.527 747.977 443.411 748.361 443.371C748.746 443.331 749.134 443.368 749.505 443.478C749.875 443.589 750.22 443.771 750.52 444.015C750.82 444.259 751.068 444.56 751.252 444.9V444.9C751.612 445.593 751.685 446.399 751.456 447.145C751.227 447.891 750.714 448.517 750.027 448.888C749.581 449 749.115 449.012 748.663 448.923V448.923ZM748.663 443.221C748.213 443.226 747.77 443.334 747.369 443.536C746.724 443.884 746.244 444.474 746.034 445.176C745.824 445.878 745.902 446.634 746.249 447.279C746.412 447.599 746.639 447.882 746.916 448.111C747.193 448.34 747.514 448.509 747.859 448.609C748.57 448.821 749.336 448.745 749.992 448.399C750.637 448.051 751.117 447.461 751.327 446.759C751.537 446.057 751.459 445.301 751.112 444.656C750.869 444.212 750.509 443.844 750.071 443.591C749.633 443.338 749.134 443.21 748.628 443.221H748.663Z" fill="#263238"/>
<path d="M755.38 434.616L765.455 430.943L788.578 479.638L778.748 483.836L755.38 434.616Z" fill="#E0E0E0"/>
<path d="M521.525 415.376C521.88 417.163 522.079 418.977 522.12 420.798C522.504 424.646 523.029 429.614 523.659 435.631C525.093 448.469 527.157 465.575 529.186 484.605C531.215 503.635 532.999 521.022 533.769 533.58C534.188 539.877 534.363 544.984 534.398 548.517C534.528 550.338 534.47 552.166 534.223 553.975C533.895 552.185 533.72 550.371 533.699 548.552C533.454 545.054 533.069 539.947 532.474 533.685C531.355 521.161 529.501 503.845 527.367 484.71C525.233 465.575 523.414 448.329 522.365 435.735C521.84 429.439 521.56 424.331 521.42 420.798C521.276 418.992 521.311 417.175 521.525 415.376Z" fill="#263238"/>
<path d="M544.648 439.653C543.011 448.489 540.791 457.207 538.001 465.75C535.777 474.448 532.984 482.99 529.641 491.322C531.254 482.484 533.463 473.765 536.252 465.225C538.472 456.522 541.277 447.978 544.648 439.653V439.653Z" fill="#263238"/>
<path d="M622.798 506.854C621.662 505.522 620.859 503.939 620.455 502.236C617.85 494.173 618.4 485.422 621.994 477.749C622.626 476.114 623.618 474.643 624.897 473.446C622.781 478.766 621.37 484.341 620.699 490.027C620.664 495.703 621.37 501.36 622.798 506.854V506.854Z" fill="#263238"/>
<path d="M610.694 619.321L624.232 620.37L618.88 676.831L605.797 675.362L610.694 619.321Z" fill="#E0E0E0"/>
<path d="M375.93 341.599L302.923 388.16C294.614 394.05 288.425 402.462 285.275 412.147C282.124 421.832 282.179 432.275 285.432 441.927L341.403 617.851L321.218 777.719L481.226 770.932L477.308 700.969L463.735 575.593C461.223 552.345 455.44 529.569 446.559 507.938L375.93 341.599Z" fill="#EF7C8F"/>
<path d="M299.669 451.547L372.677 604.349C375.588 610.439 379.827 615.799 385.081 620.037C390.335 624.274 396.472 627.281 403.041 628.836L605.657 676.831L610.834 617.852L456.179 559.817L378.379 410.514C375.573 405.136 371.695 400.389 366.985 396.567C362.275 392.744 356.832 389.927 350.992 388.288C345.152 386.649 339.037 386.224 333.026 387.038C327.015 387.853 321.235 389.889 316.041 393.023V393.023C306.382 398.867 299.312 408.172 296.271 419.044C293.229 429.917 294.445 441.539 299.669 451.547V451.547Z" fill="#EF7C8F"/>
<path d="M610.834 617.851C610.545 617.827 610.261 617.756 609.994 617.642L607.615 616.837L598.45 613.549L564.518 601.06L450.162 558.312H449.847V557.962L436.379 531.306C423.715 506.609 411.087 483.346 399.263 462.357C393.351 451.862 387.649 441.962 382.262 432.727L374.426 419.364C373.166 417.195 371.907 415.131 370.578 413.207C369.326 411.275 367.947 409.428 366.45 407.68C361.235 401.466 354.549 396.656 347 393.687C341.309 391.37 335.195 390.274 329.054 390.469C323.784 390.542 318.615 391.925 314.012 394.492C314.266 394.259 314.548 394.06 314.851 393.897C315.696 393.306 316.599 392.802 317.545 392.393C321.175 390.817 325.065 389.928 329.019 389.769C335.268 389.447 341.514 390.448 347.35 392.707C355.13 395.696 362.034 400.592 367.429 406.945C368.975 408.713 370.401 410.583 371.697 412.542C373.096 414.536 374.391 416.6 375.615 418.769L383.556 432.062C389.013 441.391 394.738 451.256 400.732 461.657C412.626 482.646 425.219 505.839 438.023 530.571C442.675 539.702 447.223 548.692 451.456 557.298L450.966 556.843L565.112 600.151L598.835 613.129L607.895 616.627L610.239 617.572L610.834 617.851Z" fill="#263238"/>
<path d="M576.412 654.618C576.412 655.378 576.11 656.108 575.572 656.646C575.034 657.184 574.304 657.486 573.543 657.486C572.783 657.486 572.053 657.184 571.515 656.646C570.977 656.108 570.675 655.378 570.675 654.618C570.675 653.857 570.977 653.127 571.515 652.589C572.053 652.051 572.783 651.749 573.543 651.749C574.304 651.749 575.034 652.051 575.572 652.589C576.11 653.127 576.412 653.857 576.412 654.618V654.618Z" fill="#263238"/>
<path d="M573.438 657.556C572.857 657.556 572.289 657.384 571.806 657.061C571.323 656.738 570.946 656.279 570.724 655.742C570.501 655.205 570.443 654.614 570.556 654.044C570.67 653.474 570.95 652.951 571.361 652.54C571.772 652.129 572.295 651.849 572.865 651.736C573.435 651.622 574.026 651.68 574.563 651.903C575.1 652.125 575.559 652.502 575.882 652.985C576.205 653.468 576.377 654.037 576.377 654.618C576.377 655.397 576.067 656.144 575.516 656.696C574.965 657.247 574.218 657.556 573.438 657.556ZM573.438 651.854C572.892 651.854 572.358 652.016 571.903 652.32C571.449 652.624 571.094 653.055 570.885 653.56C570.676 654.065 570.621 654.621 570.728 655.157C570.835 655.693 571.098 656.185 571.484 656.572C571.871 656.958 572.363 657.222 572.899 657.328C573.435 657.435 573.991 657.38 574.496 657.171C575.001 656.962 575.433 656.607 575.736 656.153C576.04 655.699 576.202 655.164 576.202 654.618C576.202 653.885 575.911 653.182 575.393 652.664C574.874 652.145 574.171 651.854 573.438 651.854V651.854Z" fill="#263238"/>
<path d="M587.431 657.486C587.431 658.054 587.263 658.608 586.948 659.08C586.633 659.552 586.185 659.919 585.661 660.136C585.136 660.353 584.56 660.41 584.003 660.3C583.447 660.189 582.936 659.916 582.534 659.515C582.133 659.113 581.86 658.602 581.749 658.046C581.639 657.489 581.696 656.913 581.913 656.388C582.13 655.864 582.497 655.416 582.969 655.101C583.441 654.786 583.995 654.618 584.563 654.618C585.324 654.618 586.053 654.92 586.591 655.458C587.129 655.996 587.431 656.725 587.431 657.486Z" fill="#263238"/>
<path d="M584.388 660.424C583.807 660.424 583.238 660.252 582.755 659.929C582.272 659.606 581.895 659.147 581.673 658.61C581.451 658.073 581.392 657.483 581.506 656.913C581.619 656.343 581.899 655.819 582.31 655.408C582.721 654.997 583.244 654.717 583.814 654.604C584.384 654.49 584.975 654.549 585.512 654.771C586.049 654.993 586.508 655.37 586.831 655.853C587.154 656.337 587.326 656.905 587.326 657.486C587.317 658.262 587.005 659.004 586.455 659.554C585.906 660.103 585.164 660.415 584.388 660.424V660.424ZM584.388 654.722C583.841 654.722 583.307 654.884 582.852 655.188C582.398 655.492 582.044 655.923 581.834 656.428C581.625 656.933 581.571 657.489 581.677 658.025C581.784 658.561 582.047 659.053 582.434 659.44C582.82 659.826 583.312 660.09 583.849 660.196C584.385 660.303 584.94 660.248 585.445 660.039C585.95 659.83 586.382 659.476 586.686 659.021C586.989 658.567 587.151 658.032 587.151 657.486C587.151 656.753 586.86 656.05 586.342 655.532C585.824 655.013 585.121 654.722 584.388 654.722V654.722Z" fill="#263238"/>
<path d="M594.533 663.398C596.117 663.398 597.401 662.114 597.401 660.53C597.401 658.945 596.117 657.661 594.533 657.661C592.948 657.661 591.664 658.945 591.664 660.53C591.664 662.114 592.948 663.398 594.533 663.398Z" fill="#263238"/>
<path d="M594.428 663.468C593.847 663.468 593.278 663.295 592.795 662.973C592.312 662.65 591.935 662.191 591.713 661.654C591.491 661.117 591.432 660.526 591.546 659.956C591.659 659.386 591.939 658.862 592.35 658.451C592.761 658.041 593.284 657.761 593.854 657.647C594.424 657.534 595.015 657.592 595.552 657.815C596.089 658.037 596.548 658.414 596.871 658.897C597.194 659.38 597.366 659.948 597.366 660.529C597.357 661.306 597.045 662.048 596.495 662.597C595.946 663.146 595.204 663.459 594.428 663.468V663.468ZM594.428 657.766C593.881 657.766 593.347 657.928 592.892 658.231C592.438 658.535 592.084 658.967 591.875 659.472C591.665 659.977 591.611 660.532 591.717 661.068C591.824 661.605 592.087 662.097 592.474 662.483C592.86 662.87 593.353 663.133 593.889 663.24C594.425 663.346 594.98 663.292 595.485 663.083C595.99 662.873 596.422 662.519 596.726 662.065C597.029 661.61 597.191 661.076 597.191 660.529C597.191 659.796 596.9 659.093 596.382 658.575C595.864 658.057 595.161 657.766 594.428 657.766Z" fill="#263238"/>
<path d="M605.657 676.831C605.332 676.884 605.002 676.884 604.677 676.831L601.844 676.201L590.929 673.578L550.84 663.713C517.012 655.422 470.381 643.668 418.538 631.669C412.066 630.13 405.665 628.906 399.333 627.191C392.977 625.672 387.053 622.716 382.017 618.551C377.599 614.112 374.041 608.893 371.522 603.159L363.896 587.207L337.555 531.831L320.064 494.47C318.105 490.132 316.566 486.739 315.411 484.29L314.222 481.597C314.076 481.306 313.959 481.001 313.872 480.687C313.872 480.687 314.082 480.967 314.397 481.527C314.712 482.086 315.166 483.066 315.726 484.115L320.729 494.19C325.031 503.075 331.223 515.704 338.779 531.271C346.335 546.838 355.326 565.693 365.331 586.438C367.814 591.615 370.403 596.932 372.992 602.354C375.486 607.876 378.959 612.901 383.241 617.187C388.076 621.166 393.761 623.979 399.858 625.407C406.05 627.087 412.521 628.311 418.993 629.85C470.801 641.884 517.432 653.813 551.19 662.418C567.946 666.826 581.554 670.359 591.139 672.913L601.949 675.886L604.747 676.691L605.657 676.831Z" fill="#263238"/>
<path d="M442.011 667.281C442.011 667.281 441.241 668.086 439.597 669.31C437.953 670.535 435.609 672.214 432.601 674.243C424.784 679.638 416.323 684.033 407.414 687.326C398.394 690.589 388.706 691.562 379.218 690.159C376.36 689.673 373.567 688.864 370.893 687.746C369.885 687.423 368.947 686.913 368.129 686.241C371.824 687.353 375.587 688.23 379.393 688.865C388.664 689.885 398.044 688.772 406.819 685.612C415.584 682.33 423.989 678.157 431.901 673.158C435.132 670.969 438.51 669.005 442.011 667.281V667.281Z" fill="#263238"/>
<path d="M451.001 687.57C451.222 687.978 451.387 688.413 451.491 688.865C451.887 690.15 452.202 691.458 452.436 692.783C453.279 697.703 453.279 702.73 452.436 707.65C451.073 714.959 447.952 721.827 443.34 727.66C437.526 734.763 429.674 739.914 420.841 742.416C412.009 744.918 402.622 744.651 393.946 741.652C386.969 739.061 380.735 734.797 375.79 729.234C372.479 725.501 369.829 721.23 367.954 716.605C367.476 715.346 367.067 714.061 366.73 712.757C366.52 711.883 366.415 711.393 366.485 711.393C368.808 717.641 372.285 723.396 376.735 728.359C381.643 733.614 387.736 737.62 394.506 740.043C402.839 742.87 411.83 743.116 420.306 740.751C428.781 738.386 436.346 733.518 442.011 726.785C446.541 721.202 449.671 714.618 451.141 707.58C452.36 700.961 452.312 694.171 451.001 687.57V687.57Z" fill="#263238"/>
<path d="M383.801 202.336L384.256 332.679C384.286 337.924 385.381 343.108 387.473 347.917C389.566 352.727 392.613 357.061 396.429 360.659C400.246 364.257 404.753 367.042 409.678 368.847C414.602 370.652 419.842 371.438 425.08 371.159C434.992 370.622 444.322 366.31 451.153 359.108C457.985 351.905 461.798 342.36 461.811 332.434C461.811 322.604 461.811 314.418 461.811 313.404C461.811 313.404 494.974 310.185 497.247 277.337C498.367 261.455 497.947 228.572 497.247 198.803C496.902 183.386 490.758 168.665 480.04 157.578C469.322 146.491 454.819 139.851 439.422 138.983H436.239C402.027 138.843 382.786 168.018 383.801 202.336Z" fill="#B78876"/>
<path d="M461.881 312.879C446.691 312.293 432.018 307.203 419.728 298.256C419.728 298.256 428.508 322.499 461.461 321.379L461.881 312.879Z" fill="#AA6550"/>
<path d="M489.132 218.077C489.069 219.305 488.529 220.46 487.627 221.296C486.726 222.132 485.534 222.584 484.304 222.555C483.705 222.569 483.108 222.463 482.551 222.242C481.993 222.021 481.485 221.69 481.058 221.269C480.63 220.848 480.292 220.346 480.062 219.791C479.833 219.237 479.717 218.642 479.722 218.042C479.785 216.821 480.32 215.671 481.214 214.836C482.108 214.001 483.291 213.545 484.514 213.565C485.116 213.551 485.714 213.657 486.274 213.878C486.833 214.098 487.343 214.428 487.773 214.849C488.204 215.269 488.545 215.771 488.779 216.326C489.012 216.88 489.132 217.476 489.132 218.077V218.077Z" fill="#263238"/>
<path d="M490.041 212.515C489.447 213.11 486.018 210.276 480.981 209.996C475.944 209.717 472.061 212.025 471.571 211.396C471.081 210.766 471.956 210.031 473.635 208.947C475.913 207.558 478.562 206.899 481.226 207.058C483.855 207.196 486.37 208.177 488.397 209.857C489.901 211.116 490.356 212.27 490.041 212.515Z" fill="#263238"/>
<path d="M440.017 217.693C439.962 218.917 439.43 220.072 438.534 220.909C437.638 221.746 436.45 222.199 435.224 222.17C434.625 222.184 434.028 222.078 433.47 221.857C432.913 221.636 432.405 221.305 431.978 220.884C431.55 220.463 431.212 219.961 430.982 219.407C430.753 218.852 430.637 218.258 430.642 217.658C430.696 216.433 431.229 215.278 432.124 214.441C433.02 213.604 434.209 213.151 435.434 213.18C436.034 213.166 436.631 213.272 437.188 213.493C437.746 213.714 438.254 214.045 438.681 214.466C439.109 214.887 439.447 215.389 439.677 215.944C439.906 216.498 440.022 217.093 440.017 217.693Z" fill="#263238"/>
<path d="M439.772 211.396C439.142 211.956 435.749 209.122 430.677 208.842C425.604 208.562 421.791 210.906 421.267 210.242C420.742 209.577 421.686 208.877 423.366 207.793C425.627 206.397 428.271 205.749 430.922 205.939C433.556 206.074 436.079 207.041 438.128 208.702C439.597 209.997 440.052 211.116 439.772 211.396Z" fill="#263238"/>
<path d="M455.759 251.1C458.469 250.418 461.254 250.078 464.049 250.086C465.344 250.086 466.603 249.841 466.848 248.966C467.03 247.65 466.81 246.309 466.218 245.118C465.169 241.9 464.084 238.577 462.965 235.044C458.452 220.771 455.269 209.052 455.969 208.877C456.668 208.702 460.656 220.141 465.169 234.414C466.218 237.912 467.268 241.41 468.247 244.524C468.981 246.126 469.118 247.937 468.632 249.631C468.416 250.073 468.102 250.46 467.714 250.763C467.326 251.066 466.874 251.277 466.393 251.38C465.662 251.477 464.921 251.477 464.189 251.38C461.379 251.65 458.545 251.556 455.759 251.1V251.1Z" fill="#263238"/>
<path d="M441.801 200.901C441.207 202.266 436.204 201.321 430.257 201.706C424.31 202.091 419.378 203.42 418.678 202.126C418.363 201.531 419.273 200.272 421.267 199.047C423.929 197.532 426.917 196.68 429.977 196.564C433.034 196.375 436.091 196.914 438.898 198.138C441.032 199.117 442.046 200.272 441.801 200.901Z" fill="#263238"/>
<path d="M489.481 200.481C488.537 201.566 485.109 200.167 480.946 199.887C476.783 199.607 473.18 200.202 472.41 198.977C472.095 198.383 472.725 197.263 474.334 196.249C476.491 195.074 478.947 194.564 481.393 194.782C483.839 195 486.167 195.936 488.082 197.473C489.481 198.732 490.041 199.922 489.481 200.481Z" fill="#263238"/>
<path d="M385.095 226.823C384.536 226.543 362.882 218.847 362.322 241.376C361.762 263.904 384.466 259.811 384.536 259.181C384.606 258.552 385.095 226.823 385.095 226.823Z" fill="#B78876"/>
<path d="M377.854 250.471C377.854 250.471 377.469 250.716 376.804 251.03C375.863 251.419 374.807 251.419 373.866 251.03C372.436 250.073 371.286 248.751 370.536 247.202C369.786 245.652 369.462 243.931 369.598 242.215C369.585 240.282 370.004 238.369 370.823 236.618C371.059 235.921 371.459 235.291 371.988 234.78C372.517 234.269 373.161 233.891 373.866 233.679C374.32 233.569 374.799 233.624 375.216 233.836C375.633 234.048 375.961 234.402 376.14 234.834C376.42 235.464 376.14 235.918 376.385 235.953C376.63 235.988 376.874 235.568 376.734 234.659C376.606 234.099 376.299 233.596 375.86 233.225C375.563 232.985 375.222 232.805 374.856 232.697C374.49 232.589 374.106 232.554 373.726 232.595C372.783 232.764 371.9 233.176 371.165 233.789C370.429 234.402 369.865 235.196 369.528 236.093C368.524 238.014 368.007 240.152 368.024 242.32C367.859 244.323 368.293 246.331 369.271 248.087C370.249 249.843 371.726 251.27 373.516 252.185C374.101 252.355 374.715 252.4 375.318 252.316C375.921 252.231 376.499 252.02 377.014 251.695C377.819 250.995 377.959 250.506 377.854 250.471Z" fill="#AA6550"/>
<path d="M372.642 225.354C374.784 225.336 376.891 225.9 378.739 226.984C380.587 228.068 382.106 229.632 383.136 231.51C384.396 234.799 384.536 238.507 385.795 241.76C386.282 243.458 387.32 244.946 388.744 245.991C390.169 247.035 391.9 247.578 393.666 247.532C394.852 247.23 395.939 246.622 396.816 245.769C397.694 244.916 398.333 243.847 398.668 242.67C399.274 240.306 399.429 237.849 399.123 235.428C398.423 224.934 396.779 214.439 396.989 203.7C396.796 193.026 399.766 182.534 405.525 173.545C408.437 169.095 412.496 165.511 417.273 163.172C422.05 160.833 427.369 159.824 432.671 160.252C439.667 161.232 445.824 165.22 452.68 166.584C456.782 167.364 461.007 167.203 465.037 166.113C469.066 165.022 472.796 163.03 475.943 160.287C476.293 159.987 476.667 159.718 477.063 159.483C478.208 158.768 479.081 157.691 479.543 156.424C480.006 155.156 480.032 153.77 479.617 152.486C479.386 151.663 478.98 150.899 478.427 150.247C465.379 136.744 440.752 131.777 422.456 135.31C413.08 137.063 404.198 140.834 396.424 146.361C388.65 151.888 382.17 159.039 377.434 167.319C368.654 183.935 369.598 207.758 372.957 225.249" fill="#263238"/>
<path d="M444.005 255.053C444.845 255.053 444.845 260.476 449.532 264.359C454.22 268.242 460.027 267.647 460.027 268.417C460.027 269.186 458.732 269.501 456.249 269.536C453.042 269.604 449.916 268.524 447.433 266.493C445.056 264.542 443.526 261.746 443.165 258.692C442.851 256.383 443.48 255.018 444.005 255.053Z" fill="#263238"/>
<path d="M758.178 440.178C758.178 440.178 782.84 418.524 787.493 416.915C792.145 415.306 829.296 414.641 831.78 416.495C834.264 418.349 871.869 438.954 865.642 442.137C859.416 445.321 833.354 430.383 833.354 430.383L828.981 430.978C828.981 430.978 851.72 443.117 855.743 447.769C859.765 452.422 855.917 457.249 851.685 455.255C847.452 453.261 827.932 442.032 826.393 442.452C824.853 442.872 847.172 455.92 849.236 458.369C851.999 461.587 850.215 467.884 845.913 466.065C843.394 465.015 822.824 451.372 822.824 451.372C828.649 456.137 834.208 461.217 839.476 466.59C841.295 470.088 837.797 473.271 834.194 471.067C831.745 469.563 821.145 459.138 817.857 457.075C817.857 457.075 814.359 456.795 808.867 462.532C803.374 468.269 782.35 476.07 782.35 476.07L758.178 440.178Z" fill="#B78876"/>
<path d="M865.538 442.207C862.874 442.588 860.16 442.421 857.562 441.717C854.702 441.142 851.903 440.299 849.201 439.199C846.298 437.799 843.115 436.19 839.756 434.476L832.76 430.978H833.25C826.879 431.311 820.492 431.136 814.149 430.453C820.453 429.449 826.832 428.992 833.215 429.089H833.425H833.669L840.666 432.587L849.796 437.379C852.367 438.514 855.022 439.45 857.737 440.178C862.529 441.577 865.573 441.892 865.538 442.207Z" fill="#AA6550"/>
<path d="M767.344 446.44C768.357 447.878 769.799 448.961 771.463 449.532C773.128 450.104 774.93 450.136 776.614 449.623C780.112 448.888 783.156 447.034 786.514 446.125C796.624 443.221 807.853 448.609 817.788 445.215C819.187 444.726 820.726 443.711 820.586 442.277C820.446 440.843 818.907 440.248 817.613 439.828L784.45 429.333" fill="#B78876"/>
<path d="M784.45 429.194C785.717 429.269 786.966 429.528 788.158 429.963C790.502 430.593 793.86 431.573 798.023 432.797L812.575 437.205L816.773 438.499C818.102 439.024 820.026 439.129 821.286 441.193C821.53 441.72 821.611 442.309 821.518 442.882C821.424 443.456 821.161 443.989 820.761 444.411C820.106 445.119 819.29 445.659 818.382 445.985C816.752 446.552 815.061 446.927 813.345 447.105C807.09 447.202 800.837 446.863 794.629 446.09C792.007 445.949 789.378 446.197 786.828 446.825C784.485 447.454 782.316 448.504 780.252 449.239C778.612 450.016 776.82 450.42 775.005 450.42C773.189 450.42 771.397 450.016 769.757 449.239C767.518 447.944 767.169 446.335 767.239 446.37C768.06 447.265 769.031 448.011 770.107 448.574C771.686 449.149 773.368 449.384 775.044 449.263C776.72 449.142 778.352 448.669 779.832 447.874C782 446.864 784.219 445.965 786.479 445.181C789.185 444.419 791.995 444.089 794.804 444.201C800.927 444.855 807.083 445.147 813.24 445.076C814.774 444.89 816.286 444.55 817.752 444.061C819.117 443.571 820.061 442.592 819.642 441.962C819.222 441.333 817.753 440.668 816.143 440.248L811.945 438.884L797.533 434.056C793.44 432.657 790.117 431.503 787.843 430.558C786.654 430.262 785.513 429.803 784.45 429.194V429.194Z" fill="#AA6550"/>
<path d="M618.145 620.685L659.039 616.627C659.039 616.627 713.121 653.673 708.014 661.824C702.906 669.974 694.021 661.824 694.021 661.824C694.021 661.824 703.641 673.683 688.074 677.391C688.074 677.391 684.366 685.541 678.454 684.807H674.746C674.746 684.807 671.248 695.126 666.385 692.888C661.523 690.649 646.306 677.356 646.306 677.356L604.327 673.648L618.145 620.685Z" fill="#B78876"/>
<path d="M643.577 662.838C643.577 662.838 633.082 666.861 630.948 671.094C628.814 675.327 627.45 685.087 634.236 687.011C638.216 687.266 642.211 687.138 646.165 686.626L643.577 675.607C645.527 673.344 647.606 671.194 649.803 669.17C652.042 667.316 649.594 660.075 643.577 662.838Z" fill="#FFBE9D"/>
<path d="M655.366 668.436C655.366 668.436 644.871 672.458 642.737 676.656C642.12 677.893 641.788 679.252 641.766 680.634C641.744 682.016 642.032 683.385 642.609 684.64C643.187 685.896 644.039 687.006 645.102 687.888C646.166 688.771 647.414 689.403 648.754 689.74C652.359 690.026 655.985 689.909 659.564 689.39L658.444 687.256C656.345 683.128 655.436 679.77 659.144 677.006C659.354 677.006 661.453 674.907 661.592 674.767C662.119 673.896 662.341 672.874 662.223 671.863C662.104 670.852 661.652 669.909 660.938 669.183C660.225 668.457 659.289 667.989 658.28 667.854C657.271 667.719 656.246 667.923 655.366 668.436Z" fill="#FFBE9D"/>
<path d="M657.884 689.005C656.999 688.047 656.441 686.833 656.29 685.538C656.14 684.243 656.404 682.934 657.045 681.798C658.424 679.55 660.638 677.94 663.202 677.321C663.992 676.987 664.861 676.883 665.708 677.019C666.555 677.155 667.348 677.526 667.994 678.09C668.31 678.544 668.532 679.056 668.646 679.597C668.76 680.138 668.764 680.696 668.659 681.239C667.948 684.129 666.474 686.774 664.391 688.9C663.412 690.124 662.222 691.453 660.648 691.418C659.074 691.383 657.919 689.914 657.15 688.585" fill="#FFBE9D"/>
<path d="M436.868 359.265L446.069 355.801L454.01 370.039L449.567 385.256L440.192 387.565L430.852 375.776L436.868 359.265Z" fill="#EF7C8F"/>
<path d="M440.192 387.565C440.192 387.565 452.121 453.016 462.021 499.053C462.021 499.053 470.171 537.533 473.46 546.208C477.133 556.108 488.467 570.696 488.467 570.696L499.976 575.173L492.98 510.492L449.602 385.256L440.192 387.565Z" fill="#EF7C8F"/>
<g opacity="0.4">
<path d="M436.868 359.265L446.069 355.801L454.01 370.039L449.567 385.256L440.192 387.565L430.852 375.776L436.868 359.265Z" fill="black"/>
</g>
<g opacity="0.4">
<path d="M440.192 387.565C440.192 387.565 452.121 453.016 462.021 499.053C462.021 499.053 471.361 537.043 473.46 546.208C474.684 551.631 488.467 570.696 488.467 570.696L499.976 575.173L492.98 510.492L449.602 385.256L440.192 387.565Z" fill="black"/>
</g>
<path d="M381.667 319.49L436.869 359.265L424.94 392.078L374.706 340.374L381.667 319.49Z" fill="#F5F5F5"/>
<path d="M446.069 355.802L461.461 321.379L470.206 349.785L458.068 379.589L446.069 355.802Z" fill="#F5F5F5"/>
<path d="M437.009 359.265C436.904 360.127 436.692 360.973 436.379 361.783L434.14 368.78C432.181 374.622 429.313 382.772 425.849 392.497L425.395 393.827L424.415 392.777L411.577 378.575C401.572 367.485 392.582 357.376 386.18 349.994L378.624 341.179C377.636 340.111 376.768 338.938 376.035 337.681C377.17 338.551 378.214 339.536 379.149 340.619L387.124 349.015C393.806 356.011 402.936 366.156 412.906 377.245C417.419 382.283 421.722 387.11 425.71 391.518L424.275 391.798C427.773 382.213 430.922 374.062 433.161 368.29L435.854 361.608C436.125 360.776 436.514 359.987 437.009 359.265V359.265Z" fill="#263238"/>
<path d="M470.207 349.924C469.62 352.687 468.753 355.383 467.618 357.97C465.834 362.833 463.21 369.549 460.202 376.895L458.907 380.079L457.998 382.283L457.228 380.044C454.185 372.22 450.499 364.661 446.209 357.445C448.049 359.095 449.608 361.033 450.827 363.182C454.173 368.261 456.898 373.722 458.942 379.449H457.228C457.648 378.4 458.103 377.35 458.523 376.266C461.531 368.885 464.33 362.273 466.429 357.515C467.389 354.847 468.657 352.299 470.207 349.924Z" fill="#263238"/>
<path d="M1171.63 1385.64L1192.9 1470.08L1229 1532.04C1229.62 1533.09 1230.01 1534.26 1230.15 1535.48C1230.3 1536.69 1230.19 1537.92 1229.84 1539.09C1229.49 1540.26 1228.9 1541.35 1228.11 1542.28C1227.33 1543.22 1226.35 1543.98 1225.26 1544.52V1544.52C1224 1545.18 1222.6 1545.52 1221.18 1545.52C1219.76 1545.52 1218.37 1545.18 1217.11 1544.52C1200.88 1535.78 1141.41 1503.28 1140.15 1497.02C1138.75 1489.78 1111.78 1409.56 1111.78 1409.56L1171.63 1385.64Z" fill="#5677BA"/>
<g opacity="0.6">
<path d="M1225.4 1544.52L1138.78 1491.25L1139.76 1494.74C1140.6 1497.82 1142.51 1500.5 1145.15 1502.3C1152.15 1507.09 1172.02 1519.79 1216.97 1544.28C1218.27 1544.97 1219.71 1545.33 1221.18 1545.33C1222.65 1545.33 1224.1 1544.97 1225.4 1544.28V1544.52Z" fill="white"/>
</g>
<g opacity="0.6">
<path d="M1148.51 1459.41C1149.75 1459.88 1150.78 1460.79 1151.4 1461.98C1152.01 1463.16 1152.17 1464.53 1151.83 1465.81C1151.4 1467.08 1150.51 1468.13 1149.33 1468.75C1148.15 1469.36 1146.78 1469.5 1145.5 1469.14C1144.17 1468.65 1143.08 1467.68 1142.43 1466.42C1141.79 1465.17 1141.63 1463.72 1142 1462.35C1142.57 1461.07 1143.63 1460.06 1144.94 1459.55C1146.25 1459.04 1147.71 1459.07 1149 1459.62" fill="white"/>
</g>
<path d="M1196.12 1513.14C1197.4 1509.96 1199.27 1507.05 1201.64 1504.57C1204.4 1502.52 1207.5 1500.99 1210.81 1500.06C1210.81 1499.85 1209.59 1499.5 1207.56 1499.75C1204.9 1500.19 1202.42 1501.37 1200.4 1503.16C1198.38 1504.95 1196.91 1507.27 1196.15 1509.86C1195.63 1511.89 1195.84 1513.14 1196.12 1513.14Z" fill="#263238"/>
<path d="M1205.14 1522.73C1205.67 1523.01 1207.59 1519.51 1211.58 1517.06C1214.15 1515.81 1216.79 1514.71 1219.49 1513.74C1217.97 1513.29 1216.37 1513.22 1214.82 1513.51C1213.26 1513.81 1211.81 1514.48 1210.56 1515.45C1206.05 1518.32 1204.65 1522.63 1205.14 1522.73Z" fill="#263238"/>
<path d="M1180.97 1501.81C1186.28 1494.62 1193.57 1489.15 1201.96 1486.07C1197.33 1486.43 1192.9 1488.1 1189.18 1490.89C1185.46 1493.68 1182.62 1497.47 1180.97 1501.81V1501.81Z" fill="#263238"/>
<path d="M1172.33 1476.69C1172.71 1477.11 1176.81 1473.9 1182.82 1472.04C1188.84 1470.19 1193.98 1470.26 1194.02 1469.7C1190.16 1468.46 1185.98 1468.63 1182.23 1470.19C1178.27 1471.14 1174.77 1473.44 1172.33 1476.69V1476.69Z" fill="#263238"/>
<path d="M1165.47 1452.07C1168.79 1449.85 1172.41 1448.12 1176.21 1446.92C1180.14 1446.28 1184.15 1446.17 1188.11 1446.61C1188.11 1446.4 1186.99 1445.63 1184.61 1445.04C1181.65 1444.33 1178.57 1444.33 1175.62 1445.04C1172.66 1445.73 1169.92 1447.12 1167.61 1449.09C1166 1450.63 1165.3 1451.86 1165.47 1452.07Z" fill="#263238"/>
<path d="M1174.74 1442.27C1174.74 1441.16 1174.49 1440.06 1174.01 1439.05C1172.92 1436.22 1171.28 1433.63 1169.18 1431.43C1167.78 1429.7 1165.85 1428.47 1163.69 1427.93C1162.96 1427.81 1162.21 1427.93 1161.55 1428.26C1160.89 1428.59 1160.35 1429.13 1160.02 1429.78C1159.4 1431.07 1159.3 1432.55 1159.74 1433.91C1160.7 1436.68 1162.6 1439.03 1165.11 1440.55C1167.62 1442.07 1170.58 1442.67 1173.48 1442.24C1176.34 1441.74 1178.99 1440.41 1181.1 1438.41C1183.2 1436.41 1184.67 1433.84 1185.31 1431.01C1185.46 1430.29 1185.45 1429.56 1185.3 1428.85C1185.14 1428.13 1184.83 1427.46 1184.4 1426.88C1183.9 1426.34 1183.24 1425.97 1182.52 1425.83C1181.8 1425.68 1181.05 1425.77 1180.38 1426.08C1178.43 1427.1 1176.79 1428.62 1175.62 1430.48C1173.84 1432.93 1172.51 1435.68 1171.7 1438.6C1171.31 1439.64 1171.14 1440.75 1171.21 1441.85C1172.52 1438.1 1174.37 1434.57 1176.7 1431.36C1177.79 1429.78 1179.24 1428.5 1180.94 1427.61C1181.3 1427.44 1181.72 1427.4 1182.11 1427.48C1182.51 1427.56 1182.87 1427.77 1183.14 1428.07C1183.39 1428.47 1183.56 1428.92 1183.63 1429.39C1183.7 1429.86 1183.68 1430.34 1183.56 1430.8C1182.93 1433.24 1181.6 1435.45 1179.73 1437.16C1177.87 1438.87 1175.56 1440 1173.06 1440.42C1170.6 1440.77 1168.08 1440.26 1165.94 1438.99C1163.8 1437.72 1162.15 1435.76 1161.28 1433.42C1160.94 1432.48 1160.94 1431.46 1161.28 1430.52C1161.46 1430.15 1161.75 1429.85 1162.12 1429.66C1162.48 1429.47 1162.9 1429.4 1163.3 1429.47C1165.12 1429.93 1166.76 1430.93 1167.99 1432.34C1170.82 1435.22 1173.11 1438.58 1174.74 1442.27Z" fill="#263238"/>
<path d="M907.971 1401.38L912.484 1466.48C912.484 1466.48 847.837 1492.93 847.487 1504.96L974.017 1500.83L971.184 1399.1L907.971 1401.38Z" fill="#5677BA"/>
<path d="M951.419 1459.69C952.655 1460.02 953.725 1460.8 954.422 1461.87C955.12 1462.94 955.396 1464.24 955.197 1465.5C954.919 1466.75 954.173 1467.84 953.112 1468.56C952.052 1469.28 950.757 1469.56 949.495 1469.35C948.191 1468.99 947.064 1468.17 946.334 1467.03C945.604 1465.89 945.321 1464.52 945.542 1463.19C945.974 1461.93 946.878 1460.88 948.064 1460.27C949.251 1459.65 950.628 1459.52 951.909 1459.9" fill="#E0E0E0"/>
<path d="M974.017 1500.83L973.352 1490.58L852.28 1498.45C852.28 1498.45 846.718 1501.11 847.487 1505.06L974.017 1500.83Z" fill="#E0E0E0"/>
<path d="M910.42 1465.85C910.42 1466.44 913.568 1466.65 916.647 1468.51C919.725 1470.36 921.474 1472.95 922.034 1472.71C922.594 1472.46 921.544 1468.89 917.766 1466.65C913.988 1464.42 910.28 1465.36 910.42 1465.85Z" fill="#263238"/>
<path d="M897.336 1471.83C897.336 1472.46 899.925 1473.41 902.094 1475.96C904.262 1478.51 904.997 1481.24 905.592 1481.21C906.186 1481.17 906.501 1477.71 903.703 1474.52C900.904 1471.34 897.336 1471.27 897.336 1471.83Z" fill="#263238"/>
<path d="M890.304 1487.99C890.899 1487.99 891.634 1484.98 889.955 1481.66C888.276 1478.34 885.302 1477.08 885.057 1477.6C884.812 1478.13 886.666 1479.88 888.031 1482.61C889.395 1485.33 889.71 1487.92 890.304 1487.99Z" fill="#263238"/>
<path d="M911.05 1450.98C911.33 1451.51 914.128 1450.56 917.626 1450.7C921.124 1450.84 923.888 1451.82 924.168 1451.3C924.448 1450.77 921.789 1448.64 917.661 1448.53C913.533 1448.43 910.7 1450.49 911.05 1450.98Z" fill="#263238"/>
<path d="M910.385 1437.86C912.481 1438.33 914.663 1438.25 916.716 1437.62C918.981 1437.13 921.177 1436.36 923.258 1435.35C924.475 1434.75 925.644 1434.06 926.756 1433.28C927.471 1432.88 928.111 1432.36 928.645 1431.74C929.034 1431.29 929.262 1430.72 929.294 1430.13C929.325 1429.53 929.159 1428.94 928.82 1428.45C928.491 1428.04 928.071 1427.7 927.592 1427.47C927.113 1427.24 926.588 1427.12 926.057 1427.12C925.247 1427.14 924.444 1427.28 923.678 1427.54C922.339 1427.91 921.038 1428.4 919.795 1429.01C917.693 1430.04 915.768 1431.4 914.093 1433.04C911.224 1435.87 910.315 1438.21 910.595 1438.32C910.875 1438.42 912.239 1436.53 915.142 1434.19C916.839 1432.79 918.708 1431.62 920.704 1430.69C921.834 1430.19 923.004 1429.78 924.203 1429.47C925.532 1429.08 926.651 1429.01 927.036 1429.47C927.421 1429.92 927.036 1429.78 927.036 1430.17C926.629 1430.62 926.158 1431.01 925.637 1431.32C924.581 1432.06 923.483 1432.74 922.349 1433.35C920.418 1434.37 918.405 1435.22 916.332 1435.91C914.299 1436.39 912.31 1437.05 910.385 1437.86Z" fill="#263238"/>
<path d="M911.19 1438.67C911.434 1438.67 912.589 1436.5 912.659 1432.51C912.696 1430.13 912.329 1427.77 911.574 1425.52C911.13 1424.2 910.543 1422.93 909.825 1421.74C909.457 1420.91 908.884 1420.2 908.162 1419.66C907.439 1419.12 906.591 1418.78 905.697 1418.66C905.135 1418.69 904.592 1418.88 904.134 1419.21C903.676 1419.54 903.32 1419.99 903.109 1420.51C902.797 1421.26 902.596 1422.05 902.514 1422.86C902.301 1424.27 902.301 1425.71 902.514 1427.12C902.946 1429.49 903.956 1431.71 905.453 1433.6C908.041 1436.78 910.63 1437.44 910.665 1437.09C910.7 1436.74 908.671 1435.66 906.677 1432.55C905.52 1430.77 904.767 1428.77 904.473 1426.67C904.298 1425.45 904.298 1424.21 904.473 1423C904.473 1421.67 905.103 1420.55 905.593 1420.69C906.082 1420.83 907.342 1421.63 907.901 1422.68C908.551 1423.8 909.112 1424.97 909.58 1426.18C910.361 1428.2 910.844 1430.32 911.015 1432.48C911.434 1436.25 910.875 1438.6 911.19 1438.67Z" fill="#263238"/>
<path d="M873.443 693.238L893.803 1450.81L993.641 1447.8L985.945 797.624L1113.14 1465.88L1203.29 1442.34L1086.9 694.707L873.443 693.238Z" fill="#263238"/>
<path d="M928.156 1451.86C927.631 1451.86 927.246 1294.82 927.246 1101.13C927.246 907.432 927.631 750.398 928.156 750.398C928.68 750.398 929.065 907.397 929.065 1101.13C929.065 1294.86 928.645 1451.86 928.156 1451.86Z" fill="#455A64"/>
<path d="M1141.62 1465.64C1141.13 1465.64 1117.83 1315.22 1089.56 1129.43C1061.3 943.639 1038.7 792.936 1039.29 792.866C1039.89 792.796 1063.08 943.289 1091.35 1129.15C1119.61 1315.01 1142.14 1465.57 1141.62 1465.64Z" fill="#455A64"/>
<path d="M1016.48 219.512C1019.96 211.727 1022.78 203.665 1024.92 195.409C1026.1 189.112 1027.99 179.702 1025.47 173.825C1022.96 167.948 1016.83 162.281 1009.14 163.89C1008.34 157.709 1005.98 151.833 1002.27 146.819C998.57 141.806 993.648 137.82 987.974 135.24C977.023 129.942 965.137 126.852 952.992 126.145C948.551 125.695 944.066 126.258 939.874 127.789C936.314 129.595 933.511 132.608 931.968 136.29C928.298 133.651 924.061 131.906 919.597 131.196C915.133 130.485 910.565 130.828 906.256 132.197C896.601 134.785 885.617 139.998 881.384 149.023C878.353 155.777 878.089 163.451 880.649 170.397C882.504 176.274 888.73 185.509 894.642 183.34" fill="#263238"/>
<path d="M967.825 382.913C962.035 382.794 956.328 381.513 951.043 379.145C945.758 376.777 941.003 373.37 937.061 369.128C933.119 364.885 930.07 359.893 928.095 354.449C926.121 349.005 925.261 343.219 925.567 337.436C926.162 325.367 926.721 315.607 926.721 315.607C926.721 315.607 893.768 311.34 892.544 278.526C891.32 245.713 895.133 170.292 895.133 170.292C913.596 161.837 933.982 158.466 954.184 160.526C974.386 162.586 993.672 170.003 1010.05 182.011L1014.98 185.509L1011.94 340.515C1011.83 346.196 1010.6 351.8 1008.32 357.007C1006.05 362.213 1002.77 366.92 998.67 370.857C994.573 374.795 989.74 377.887 984.447 379.955C979.155 382.024 973.507 383.029 967.825 382.913V382.913Z" fill="#FFBE9D"/>
<path d="M926.757 315.257C941.91 315.155 956.692 310.552 969.225 302.034C969.225 302.034 959.115 327.466 926.302 325.332L926.757 315.257Z" fill="#EB996E"/>
<path d="M1011.8 219.616C1012.36 219.372 1034.19 212.375 1034.01 234.834C1033.84 257.292 1011.38 252.5 1011.34 251.835C1011.31 251.17 1011.8 219.616 1011.8 219.616Z" fill="#FFBE9D"/>
<path d="M1018.23 243.37C1018.23 243.37 1018.65 243.65 1019.28 243.964C1019.75 244.161 1020.25 244.262 1020.75 244.262C1021.26 244.262 1021.76 244.161 1022.22 243.964C1023.68 243.061 1024.87 241.783 1025.67 240.264C1026.47 238.745 1026.85 237.039 1026.77 235.324C1026.84 233.4 1026.47 231.485 1025.69 229.727C1025.49 229.025 1025.12 228.384 1024.61 227.86C1024.1 227.335 1023.48 226.943 1022.78 226.718C1022.33 226.591 1021.86 226.627 1021.43 226.819C1021.01 227.011 1020.67 227.347 1020.47 227.768C1020.16 228.397 1020.3 228.817 1020.19 228.852C1020.09 228.887 1019.7 228.502 1019.88 227.558C1020.02 227.003 1020.34 226.51 1020.79 226.159C1021.42 225.709 1022.19 225.51 1022.96 225.599C1023.87 225.796 1024.72 226.22 1025.43 226.831C1026.14 227.442 1026.68 228.221 1027.01 229.097C1027.97 231.042 1028.41 233.196 1028.31 235.359C1028.4 237.357 1027.9 239.339 1026.88 241.056C1025.85 242.773 1024.34 244.15 1022.54 245.014C1021.94 245.164 1021.32 245.186 1020.72 245.077C1020.12 244.969 1019.54 244.732 1019.04 244.384C1018.27 243.929 1018.16 243.44 1018.23 243.37Z" fill="#EB996E"/>
<path d="M903.633 221.611C903.66 222.833 904.16 223.997 905.027 224.858C905.895 225.72 907.063 226.211 908.285 226.228C908.882 226.261 909.479 226.175 910.042 225.973C910.605 225.772 911.121 225.46 911.561 225.055C912.001 224.651 912.356 224.163 912.605 223.619C912.853 223.076 912.99 222.488 913.008 221.891C912.99 220.666 912.493 219.496 911.623 218.633C910.753 217.77 909.58 217.282 908.355 217.273C907.76 217.245 907.164 217.335 906.604 217.538C906.043 217.742 905.529 218.054 905.09 218.457C904.65 218.861 904.296 219.347 904.046 219.888C903.795 220.43 903.655 221.015 903.633 221.611V221.611Z" fill="#263238"/>
<path d="M902.479 216.363C903.074 216.958 906.572 214.264 911.609 214.159C916.647 214.054 920.425 216.468 920.95 215.838C921.474 215.209 920.6 214.474 918.956 213.32C916.734 211.869 914.121 211.137 911.47 211.221C908.845 211.279 906.308 212.173 904.228 213.775C902.689 214.999 902.269 216.118 902.479 216.363Z" fill="#263238"/>
<path d="M953.027 221.575C953.063 222.792 953.567 223.947 954.434 224.801C955.301 225.654 956.463 226.141 957.68 226.158C958.278 226.196 958.877 226.113 959.442 225.913C960.006 225.713 960.525 225.401 960.966 224.996C961.407 224.591 961.762 224.101 962.009 223.555C962.256 223.009 962.39 222.419 962.402 221.82C962.384 220.601 961.892 219.437 961.03 218.575C960.168 217.713 959.004 217.221 957.785 217.203C957.185 217.175 956.585 217.266 956.02 217.471C955.455 217.676 954.937 217.991 954.494 218.397C954.052 218.804 953.695 219.294 953.443 219.84C953.191 220.385 953.05 220.975 953.027 221.575V221.575Z" fill="#263238"/>
<path d="M952.048 216.083C952.678 216.678 956.141 213.949 961.179 213.844C966.216 213.74 969.994 216.153 970.519 215.524C971.044 214.894 970.169 214.159 968.525 213.04C966.312 211.567 963.695 210.821 961.039 210.906C958.414 210.964 955.877 211.858 953.797 213.46C952.258 214.684 951.768 215.803 952.048 216.083Z" fill="#263238"/>
<path d="M934.697 253.899C932.018 253.144 929.258 252.721 926.476 252.64C925.182 252.64 923.957 252.325 923.712 251.45C923.597 250.12 923.864 248.785 924.482 247.602C925.636 244.454 926.826 241.165 927.98 237.702C932.913 223.709 936.446 212.06 935.886 211.851C935.326 211.641 930.849 222.94 925.916 237.003L922.418 246.972C921.64 248.545 921.442 250.341 921.858 252.045C922.073 252.482 922.377 252.87 922.751 253.184C923.124 253.497 923.559 253.729 924.027 253.864C924.749 254.038 925.489 254.12 926.231 254.109C929.049 254.425 931.898 254.355 934.697 253.899V253.899Z" fill="#263238"/>
<path d="M949.634 257.047C948.795 257.047 948.935 262.47 944.352 266.493C939.769 270.516 933.857 269.991 933.857 270.795C933.857 271.6 935.187 271.81 937.67 271.81C940.872 271.781 943.959 270.616 946.381 268.522C948.72 266.518 950.188 263.682 950.474 260.616C950.649 258.342 950.019 256.978 949.634 257.047Z" fill="#263238"/>
<path d="M950.264 196.354C950.789 197.718 955.826 196.948 961.738 197.508C967.65 198.068 972.513 199.537 973.247 198.313C973.597 197.718 972.722 196.424 970.763 195.164C968.169 193.571 965.23 192.623 962.193 192.401C959.15 192.109 956.082 192.54 953.238 193.66C951.244 194.605 950.054 195.689 950.264 196.354Z" fill="#263238"/>
<path d="M903.983 201.741C904.893 202.86 908.321 201.741 912.519 201.426C916.717 201.111 920.25 201.986 921.019 200.797C921.369 200.202 920.775 199.047 919.2 197.998C917.092 196.759 914.663 196.174 912.222 196.318C909.78 196.461 907.437 197.326 905.488 198.803C904.018 199.992 903.563 201.181 903.983 201.741Z" fill="#263238"/>
<path d="M1016.73 188.098C1016.52 197.683 1018.93 208.282 1017.46 217.692C1017.25 219.127 1013.69 223.01 1013.37 224.409C1011.66 232.77 1008.3 236.408 1003.16 227.907C1001.16 224.654 999.659 215.524 998.889 211.815L992.173 181.696C984.57 185.885 976.05 188.132 967.37 188.238C963.038 188.228 958.78 187.114 954.998 185.003C951.215 182.891 948.033 179.851 945.751 176.169C943.785 179.631 941.064 182.605 937.789 184.87C934.515 187.135 930.771 188.633 926.838 189.252C922.905 189.87 918.883 189.594 915.071 188.443C911.26 187.292 907.756 185.297 904.823 182.606C903.284 184.905 900.936 186.541 898.247 187.189C895.557 187.837 892.722 187.449 890.305 186.104C887.961 184.623 886.146 182.437 885.121 179.86C884.097 177.283 883.915 174.448 884.603 171.761C886.667 163.715 895.097 159.168 903.038 156.614C933.997 146.644 968.7 153.116 997.14 168.718C1001.38 170.877 1005.27 173.66 1008.68 176.973C1011.97 180.472 1016.52 184.39 1016.76 189.147" fill="#263238"/>
<path d="M993.222 185.509C994.945 185.503 996.658 185.775 998.294 186.314C1000.01 187.056 1001.59 188.072 1002.98 189.322C1004.59 190.722 1006.17 192.541 1008.09 194.325C1009.88 196.131 1012.06 197.506 1014.46 198.348C1016.49 198.925 1018.65 198.925 1020.68 198.348C1024.18 197.368 1025.51 195.479 1025.37 195.339C1023.76 196.022 1022.1 196.583 1020.4 197.018C1018.6 197.326 1016.74 197.169 1015.02 196.564C1012.89 195.746 1010.97 194.481 1009.38 192.856C1007.56 191.141 1005.89 189.357 1004.14 187.888C1002.54 186.574 1000.72 185.577 998.749 184.95C995.146 183.97 992.977 185.509 993.222 185.509Z" fill="#455A64"/>
<path d="M996.965 195.304C996.965 195.584 998.644 195.304 1000.46 196.879C1001.53 197.856 1002.5 198.947 1003.33 200.132C1004.48 201.722 1005.93 203.066 1007.6 204.085C1010.65 205.979 1014.26 206.746 1017.81 206.254C1020.51 205.834 1021.91 204.854 1021.8 204.645C1021.7 204.435 1020.16 204.854 1017.67 204.889C1014.48 204.973 1011.33 204.122 1008.61 202.441C1005.4 200.657 1003.79 197.228 1001.23 195.759C998.679 194.29 996.72 195.06 996.965 195.304Z" fill="#455A64"/>
<path d="M910.454 131.497C910.454 131.497 909.37 131.217 907.551 131.777C904.989 132.634 902.778 134.304 901.254 136.535C897.231 142.167 896.287 152.137 899.4 161.827C902.151 170.17 907.88 177.206 915.492 181.591C917.745 182.902 920.155 183.924 922.663 184.635C923.567 184.98 924.529 185.146 925.497 185.125C922.338 183.712 919.255 182.136 916.261 180.402C909.218 175.913 903.941 169.129 901.324 161.197C898.351 152.067 899.05 142.517 902.443 137.269C903.762 135.178 905.657 133.514 907.901 132.477C909.44 131.742 910.454 131.672 910.454 131.497Z" fill="#455A64"/>
<path d="M883.274 145.105C882.9 147.21 882.995 149.372 883.554 151.437C885.563 161.636 891.54 170.619 900.17 176.414C901.859 177.733 903.818 178.664 905.907 179.142C900.166 175.113 895.12 170.174 890.97 164.52C884.428 154.865 883.903 145 883.274 145.105Z" fill="#455A64"/>
<path d="M702.382 602.285L654.387 604.698C651.442 604.852 648.671 606.14 646.656 608.292C644.64 610.445 643.537 613.294 643.577 616.242C643.822 627.227 645.676 642.234 654.072 640.73L659.529 616.837L699.373 651.819C703.404 655.45 708.374 657.874 713.716 658.816L723.091 657.836L702.382 602.285Z" fill="#FFBE9D"/>
<path d="M931.899 345.202L906.817 353.493L894.363 561.81V746.62L1048.39 763.656L1050.17 497.164L1040.24 364.547L1016.7 336.421L931.899 345.202Z" fill="#E0E0E0"/>
<path d="M924.168 355.172V334.987L1015.72 322.254L1012.04 368.745L991.018 405.196L956.631 407.12L931.794 391.798L924.168 355.172Z" fill="#E0E0E0"/>
<path d="M932.389 352.828C931.608 349.814 931.43 346.676 931.864 343.593C931.709 340.483 932.148 337.373 933.158 334.428C933.938 337.442 934.117 340.58 933.683 343.663C933.838 346.773 933.399 349.883 932.389 352.828V352.828Z" fill="#263238"/>
<path d="M955.266 351.149C954.578 347.751 954.471 344.262 954.951 340.829C954.859 337.36 955.38 333.902 956.491 330.614C957.197 334.069 957.292 337.621 956.77 341.109C956.867 344.518 956.358 347.917 955.266 351.149V351.149Z" fill="#263238"/>
<path d="M977.41 348.84C976.81 345.227 976.81 341.539 977.41 337.926C977.378 334.264 977.957 330.622 979.124 327.151C979.703 330.766 979.703 334.451 979.124 338.066C979.136 341.726 978.558 345.364 977.41 348.84V348.84Z" fill="#263238"/>
<path d="M998.679 345.342C997.288 338.525 997.612 331.468 999.624 324.808C1000.09 328.22 1000.09 331.68 999.624 335.092C999.762 338.536 999.445 341.982 998.679 345.342V345.342Z" fill="#263238"/>
<path d="M988.5 433.392C988.258 434.609 987.846 435.787 987.275 436.89C986.401 439.059 985.036 442.137 983.252 445.915C979.754 453.436 974.402 463.686 967.895 474.6C961.389 485.515 954.917 495.1 949.985 501.816C947.536 505.315 945.507 507.868 944.038 509.687C943.338 510.684 942.515 511.589 941.589 512.381C943.831 508.484 946.283 504.712 948.935 501.082C953.588 494.085 959.849 484.57 966.426 473.691C973.003 462.811 978.355 452.702 982.203 445.32C984.093 441.237 986.195 437.256 988.5 433.392V433.392Z" fill="#263238"/>
<path d="M1016.24 333.168L1041.08 345.132L1089.07 356.921C1099.21 358.684 1108.28 364.29 1114.4 372.571C1120.51 380.853 1123.19 391.173 1121.89 401.383L1096.73 597.282L1126.75 787.234L1007.81 783.736L1000.81 713.072V517.173L1016.24 333.168Z" fill="#455A64"/>
<path d="M1000.81 562.3C1000.87 561.477 1000.99 560.658 1001.16 559.851C1001.51 558.102 1001.97 555.829 1002.53 552.855L1007.81 527.598L1025.97 444.446C1027.96 435.526 1029.88 426.955 1031.74 418.489L1031.98 419.329L1023.73 410.688L1023.27 410.199L1023.62 409.639L1037.44 386.656V387.32L1022.19 350.379C1020.47 346.077 1019.07 342.613 1018.06 339.885C1017.52 338.687 1017.07 337.447 1016.73 336.177C1017.43 337.28 1018.02 338.452 1018.48 339.675L1023.03 349.855L1038.7 386.831L1038.87 387.18L1038.66 387.53C1034.43 394.527 1029.85 402.398 1024.99 410.653V409.604L1033.24 418.174L1033.59 418.524V418.979C1031.74 427.34 1029.81 436.015 1027.85 444.936C1020.58 477.294 1013.86 506.574 1009.17 527.983C1006.76 538.477 1004.77 546.978 1003.33 553.135L1001.65 559.921C1001.46 560.741 1001.17 561.539 1000.81 562.3V562.3Z" fill="#263238"/>
<path d="M704.411 594.379L809.637 535.714L860.606 398.2C864.136 388.701 869.581 380.029 876.604 372.723C883.627 365.418 892.077 359.634 901.43 355.732L914.968 350.1V712.128L917.661 797.904L860.641 780.833L889.746 608.441L879.671 523.61L869.701 564.644C867.947 571.924 864.74 578.776 860.274 584.787C855.808 590.798 850.174 595.845 843.709 599.626L734.356 656.437L704.411 594.379Z" fill="#455A64"/>
<path d="M705.67 597.037L696.819 599.696L721.726 659.095L733.341 654.582L705.67 597.037Z" fill="#E0E0E0"/>
<path d="M828.807 560.131C826.64 555.434 824.003 550.969 820.936 546.803C817.399 543.033 813.497 539.623 809.287 536.624C814.379 538.382 818.892 541.504 822.334 545.648C825.775 549.793 828.014 554.803 828.807 560.131V560.131Z" fill="#263238"/>
<path d="M717.039 595.148C717.039 595.393 716.514 595.848 716.444 596.862C716.374 597.877 717.039 599.066 718.438 598.646C718.703 598.585 718.946 598.454 719.141 598.266C719.337 598.078 719.478 597.84 719.55 597.578C719.622 597.317 719.621 597.04 719.549 596.779C719.476 596.517 719.334 596.28 719.138 596.093C718.543 595.253 717.774 595.218 717.739 594.938C717.704 594.658 718.718 594.169 720.047 595.148C720.43 595.452 720.737 595.841 720.944 596.285C721.15 596.728 721.251 597.213 721.237 597.702C721.179 598.33 720.93 598.925 720.524 599.406C720.117 599.888 719.572 600.233 718.963 600.396C718.433 600.581 717.861 600.612 717.314 600.485C716.767 600.359 716.266 600.08 715.871 599.681C715.476 599.282 715.201 598.779 715.08 598.231C714.959 597.683 714.995 597.111 715.185 596.582C715.78 595.008 716.864 594.798 717.039 595.148Z" fill="#263238"/>
<path d="M725.505 591.58C725.505 591.825 724.981 592.28 724.946 593.294C724.911 594.309 725.54 595.498 726.94 595.078C727.204 595.011 727.446 594.874 727.64 594.683C727.834 594.491 727.974 594.252 728.046 593.988C728.117 593.725 728.117 593.447 728.045 593.184C727.974 592.92 727.834 592.681 727.639 592.489C727.045 591.685 726.275 591.615 726.205 591.37C726.135 591.125 727.184 590.565 728.549 591.58C728.931 591.877 729.238 592.259 729.445 592.697C729.651 593.135 729.752 593.615 729.738 594.099C729.67 594.731 729.416 595.329 729.008 595.817C728.601 596.305 728.058 596.661 727.447 596.841C726.837 597.021 726.188 597.016 725.581 596.826C724.974 596.637 724.436 596.272 724.036 595.778C723.767 595.369 723.595 594.905 723.534 594.419C723.474 593.934 723.526 593.441 723.686 592.979C724.281 591.3 725.505 591.3 725.505 591.58Z" fill="#263238"/>
<path d="M914.967 567.862C914.729 567.148 914.577 566.408 914.512 565.658C914.268 563.979 913.918 561.845 913.533 559.187C912.728 553.345 911.644 545.194 910.315 535.434C907.726 515.144 904.228 487.474 900.345 456.934C899.82 452.597 899.295 448.329 898.771 444.096V443.886V443.676C901.429 436.925 904.018 430.383 906.467 424.121V424.786C903.808 418.734 901.254 412.927 898.875 407.295V407.05V406.77C903.563 389.944 907.481 375.776 910.28 365.561C911.679 360.734 912.798 356.886 913.603 354.017C913.948 352.63 914.405 351.273 914.967 349.959C914.783 351.367 914.49 352.759 914.093 354.122C913.393 357.026 912.413 360.944 911.189 365.806C908.53 376.056 904.822 390.294 900.45 407.19V406.665L908.181 423.946V424.261V424.611L900.52 444.376V443.921C901.044 448.119 901.569 452.422 902.129 456.759C905.627 487.334 909.125 515.004 911.539 535.294C912.658 545.194 913.568 553.275 914.198 559.152L914.827 565.623C914.964 566.361 915.011 567.113 914.967 567.862Z" fill="#263238"/>
<path d="M889.64 609.456C889.468 608.897 889.351 608.323 889.29 607.742C889.115 606.413 888.87 604.768 888.59 602.809C888.031 598.227 887.296 592.07 886.352 584.584C884.498 569.192 881.874 547.958 878.725 524.52C875.577 501.082 872.499 479.883 870.26 464.561C869.175 457.11 868.266 450.953 867.601 446.405C867.356 444.411 867.146 442.907 866.972 441.438C866.879 440.858 866.879 440.268 866.972 439.688C867.18 440.231 867.332 440.794 867.426 441.368C867.706 442.697 868.021 444.306 868.406 446.265C869.21 450.533 870.33 456.76 871.624 464.351C874.213 479.638 877.501 500.802 880.649 524.275C883.798 547.748 886.212 569.017 887.646 584.444C888.415 592.14 888.975 598.437 889.325 602.704C889.325 604.698 889.57 606.203 889.64 607.707C889.732 608.286 889.732 608.877 889.64 609.456Z" fill="#263238"/>
<path d="M875.123 738.224C875.796 739.305 876.607 740.293 877.537 741.163C878.868 742.235 880.428 742.988 882.095 743.364C883.763 743.74 885.494 743.729 887.157 743.332C889.588 742.567 891.805 741.241 893.628 739.46C895.451 737.679 896.83 735.494 897.651 733.082C899.573 726.992 900.564 720.647 900.59 714.262C901.347 707.935 900.69 701.518 898.666 695.476C896.432 690.796 893.167 686.681 889.116 683.442C886.378 681.099 883.935 678.433 881.84 675.502C881.022 674.473 880.437 673.28 880.125 672.003C880.125 672.003 880.86 673.193 882.399 675.152C884.685 677.862 887.227 680.346 889.99 682.568C894.335 685.807 897.838 690.042 900.205 694.917C902.446 701.164 903.201 707.847 902.409 714.437C902.379 721.013 901.304 727.542 899.226 733.782C898.276 736.386 896.722 738.727 894.691 740.612C892.659 742.498 890.209 743.873 887.542 744.626C885.692 745.057 883.764 745.02 881.931 744.519C880.099 744.018 878.421 743.069 877.047 741.757C876.335 741.049 875.755 740.22 875.333 739.309C875.123 738.504 875.053 738.224 875.123 738.224Z" fill="#263238"/>
<path d="M836.013 602.285C836.013 602.285 839.511 562.16 871.275 558.452C871.275 558.452 871.869 591.3 836.013 602.285Z" fill="#263238"/>
<path d="M1006.3 752.532L1098.83 813.051L1109.33 804.69L1114.26 669.065L1026.14 602.285L1014.04 606.448L1006.3 752.532Z" fill="#5677BA"/>
<path d="M1025.13 604.208L1028.73 750.993H1009.28L1015.79 607.112L1025.13 604.208Z" fill="#E0E0E0"/>
<path d="M1054.23 784.715C1055.09 786.787 1056.55 788.557 1058.42 789.802C1060.29 791.047 1062.48 791.712 1064.73 791.712C1064.89 791.759 1065.05 791.843 1065.18 791.958C1065.32 792.073 1065.42 792.216 1065.49 792.376C1066.36 793.967 1067.63 795.305 1069.17 796.261C1070.71 797.217 1072.47 797.759 1074.28 797.834C1077.79 797.828 1081.23 796.834 1084.21 794.965C1089.04 792.027 1097.64 772.716 1097.64 772.716L1118.04 727.24L1083.76 717.97L1040.17 731.543C1040.17 732.347 1029.95 773.521 1029.95 773.521C1032.44 774.111 1035.05 773.775 1037.3 772.578C1039.56 771.38 1041.3 769.402 1042.2 767.014C1044.41 762.031 1046.98 757.214 1049.89 752.602L1053.15 771.177L1040.73 775.41C1040.33 777.361 1040.64 779.392 1041.62 781.127C1042.6 782.863 1044.17 784.187 1046.04 784.855L1054.23 784.715Z" fill="#FFBE9D"/>
<path d="M1069.62 465.575L1126.75 570.731L1080.26 708.735L1131.93 737.875L1197.66 584.304C1200.06 578.671 1201.25 572.596 1201.15 566.473C1201.06 560.35 1199.68 554.316 1197.1 548.762L1116.64 375.636L1069.62 465.575Z" fill="#455A64"/>
<path d="M1080.26 708.735L1075.43 719.439L1124.19 745.746L1129.3 736.371L1080.26 708.735Z" fill="#E0E0E0"/>
<path d="M1080.26 708.735C1080.26 708.735 1080.26 708.49 1080.26 708.035C1080.26 707.58 1080.61 706.846 1080.85 706.006L1083.34 698.205C1085.61 691.209 1088.83 681.449 1092.82 669.205C1101.07 644.438 1112.58 609.946 1125.73 570.451V571.186C1119.09 559.886 1112.23 547.958 1105.34 535.644C1092.75 513.151 1081.2 491.462 1071.3 471.417C1066.4 461.377 1061.86 451.792 1058.01 442.592C1054.23 434.031 1052.59 424.676 1053.25 415.341C1053.56 407.665 1055.28 400.111 1058.32 393.057C1060.73 387.767 1064.17 383.01 1068.43 379.065C1071.11 376.571 1074.19 374.538 1077.53 373.048C1078.65 372.511 1079.82 372.078 1081.03 371.753C1076.53 373.606 1072.4 376.261 1068.85 379.589C1064.73 383.559 1061.45 388.318 1059.2 393.582C1056.3 400.546 1054.69 407.977 1054.44 415.516C1053.9 424.64 1055.57 433.759 1059.3 442.102C1063.22 451.232 1067.8 460.783 1072.74 470.787C1082.67 490.762 1094.28 512.381 1106.88 534.839C1113.87 547.153 1120.56 559.082 1127.17 570.381L1127.38 570.731V571.116C1113.94 610.54 1102.26 644.963 1093.83 669.66L1084.17 698.415C1082.99 701.668 1082.08 704.222 1081.41 706.111L1080.64 708.105C1080.53 708.325 1080.4 708.536 1080.26 708.735V708.735Z" fill="#263238"/>
<path d="M1165.37 569.751C1163.45 569.218 1161.56 568.552 1159.74 567.757C1150.68 564.752 1140.85 565.062 1132 568.632C1130.22 569.545 1128.39 570.328 1126.5 570.976C1127.87 569.442 1129.57 568.244 1131.47 567.477C1135.92 565.3 1140.79 564.107 1145.74 563.979C1150.69 563.807 1155.62 564.714 1160.19 566.638C1162.13 567.267 1163.9 568.332 1165.37 569.751V569.751Z" fill="#263238"/>
<path d="M1058.18 440.563L1099.22 577.902L1105.02 532.74L1058.18 440.563Z" fill="#263238"/>
<path d="M1126.15 710.414C1126.15 710.659 1125.63 711.114 1125.59 712.128C1125.56 713.143 1126.19 714.332 1127.59 713.912C1127.85 713.845 1128.09 713.708 1128.29 713.517C1128.48 713.325 1128.62 713.086 1128.69 712.822C1128.77 712.559 1128.77 712.281 1128.69 712.018C1128.62 711.755 1128.48 711.515 1128.29 711.324C1127.69 710.519 1126.92 710.449 1126.89 710.204C1126.85 709.959 1127.83 709.435 1129.2 710.414C1129.58 710.714 1129.89 711.103 1130.1 711.547C1130.31 711.991 1130.41 712.478 1130.39 712.968C1130.32 713.598 1130.07 714.194 1129.65 714.676C1129.24 715.157 1128.69 715.501 1128.08 715.661C1127.46 715.888 1126.78 715.909 1126.15 715.72C1125.52 715.53 1124.97 715.142 1124.58 714.612C1124.31 714.21 1124.14 713.751 1124.08 713.271C1124.02 712.792 1124.07 712.304 1124.23 711.848C1124.75 710.239 1126.15 710.239 1126.15 710.414Z" fill="#263238"/>
<path d="M1130.11 700.514C1130.11 700.759 1129.58 701.214 1129.55 702.263C1129.5 702.528 1129.52 702.8 1129.61 703.054C1129.7 703.308 1129.85 703.535 1130.05 703.714C1130.25 703.893 1130.49 704.018 1130.75 704.076C1131.02 704.135 1131.29 704.125 1131.55 704.048C1131.8 703.971 1132.04 703.83 1132.23 703.637C1132.41 703.444 1132.55 703.207 1132.62 702.947C1132.69 702.687 1132.69 702.414 1132.62 702.154C1132.56 701.893 1132.43 701.654 1132.24 701.458C1131.65 700.619 1130.84 700.584 1130.81 700.304C1130.77 700.024 1131.79 699.534 1133.15 700.514C1133.53 700.818 1133.84 701.207 1134.05 701.65C1134.25 702.094 1134.35 702.579 1134.34 703.068C1134.33 703.516 1134.22 703.957 1134.02 704.359C1133.82 704.76 1133.53 705.114 1133.18 705.396C1132.83 705.678 1132.43 705.881 1131.99 705.991C1131.56 706.101 1131.1 706.116 1130.66 706.034C1130.22 705.953 1129.8 705.777 1129.43 705.518C1129.07 705.26 1128.76 704.925 1128.54 704.537C1128.31 704.149 1128.17 703.716 1128.13 703.27C1128.09 702.823 1128.14 702.372 1128.29 701.948C1128.88 700.374 1130.11 700.269 1130.11 700.514Z" fill="#263238"/>
<path d="M1186.25 525.569C1180.13 528.787 1178 537.812 1178.7 544.704C1179.4 551.595 1181.95 558.277 1181.77 565.168C1181.32 570.097 1180.44 574.977 1179.15 579.756C1177.83 584.551 1177.98 589.631 1179.57 594.343C1180.42 596.672 1182.02 598.653 1184.11 599.976C1186.21 601.299 1188.68 601.89 1191.15 601.655L1196.01 591.86C1199.8 584.192 1201.71 575.734 1201.59 567.183C1201.47 558.632 1199.32 550.232 1195.31 542.675L1186.25 525.569Z" fill="#263238"/>
<path d="M1485.77 1264C1488.92 1253.12 1495.67 1242.56 1506.06 1238.08C1516.45 1233.6 1529.46 1236.05 1540.55 1240.11C1551.64 1244.17 1562.55 1249.52 1574.34 1250.26C1586.13 1250.99 1599.39 1245.39 1602.92 1234.13C1606.25 1223.63 1599.88 1212.23 1591.87 1204.53C1583.41 1196.44 1573.05 1190.61 1561.75 1187.56C1550.45 1184.5 1538.57 1184.34 1527.18 1187.07C1515.8 1189.8 1505.29 1195.35 1496.6 1203.2C1487.92 1211.04 1481.34 1220.95 1477.48 1231.99" fill="#EF7C8F"/>
<g opacity="0.5">
<path d="M1485.77 1264C1488.92 1253.12 1495.67 1242.56 1506.06 1238.08C1516.45 1233.6 1529.46 1236.05 1540.55 1240.11C1551.64 1244.17 1562.55 1249.52 1574.34 1250.26C1586.13 1250.99 1599.39 1245.39 1602.92 1234.13C1606.25 1223.63 1599.88 1212.23 1591.87 1204.53C1583.41 1196.44 1573.05 1190.61 1561.75 1187.56C1550.45 1184.5 1538.57 1184.34 1527.18 1187.07C1515.8 1189.8 1505.29 1195.35 1496.6 1203.2C1487.92 1211.04 1481.34 1220.95 1477.48 1231.99" fill="#4DE9C6"/>
</g>
<path d="M1392.44 1311.33C1375.15 1294.93 1376.03 1266.35 1384.63 1244.1C1393.24 1221.85 1412.06 1204.81 1433.08 1193.58C1453.61 1182.79 1476.32 1176.79 1499.51 1176.04C1522.69 1175.28 1545.74 1179.8 1566.93 1189.25C1556.56 1189.69 1546.45 1192.66 1537.5 1197.91C1528.55 1203.17 1521.02 1210.53 1515.57 1219.37C1506.13 1235.11 1503.99 1254.35 1496.19 1270.79C1487.37 1289.52 1471.71 1304.16 1452.42 1311.7C1433.14 1319.25 1411.7 1319.11 1392.51 1311.33" fill="#4DE9C6"/>
<path d="M1384.11 1212.69C1364.97 1190.09 1362.46 1153.85 1365.25 1124.36C1368.05 1094.87 1374.91 1065.24 1370.26 1035.99C1367.49 1018.68 1360.78 1002.16 1358.5 984.743C1356.23 967.322 1359.45 947.697 1372.95 936.468C1388.41 923.559 1412.83 926.603 1428.92 938.741C1445.01 950.88 1454.39 969.875 1461.21 988.836C1476.18 1030.53 1481.67 1076.75 1469.36 1119.28C1457.05 1161.82 1428.19 1199.74 1385.79 1212.69" fill="#4DE9C6"/>
<path d="M1374.95 1398.02C1374.87 1397.16 1374.87 1396.29 1374.95 1395.43C1374.95 1393.72 1374.95 1391.2 1374.95 1387.94C1375.19 1381.47 1375.82 1372.1 1377.25 1360.59C1378.97 1347.11 1381.42 1333.74 1384.6 1320.53C1388.58 1304.32 1394.74 1288.72 1402.9 1274.15C1411.09 1259.6 1421.14 1246.18 1432.77 1234.2C1442.25 1224.44 1452.75 1215.71 1464.08 1208.17C1468.87 1204.85 1473.49 1202.37 1477.48 1200.02C1481.47 1197.68 1485.1 1196.14 1487.97 1194.7L1494.97 1191.84C1495.74 1191.45 1496.55 1191.15 1497.38 1190.93C1496.64 1191.38 1495.87 1191.78 1495.07 1192.12L1488.32 1195.26C1485.45 1196.77 1481.95 1198.76 1477.83 1200.79C1473.7 1202.82 1469.36 1205.76 1464.64 1209.08C1439.72 1226.11 1419.03 1248.63 1404.19 1274.92C1386.7 1305.7 1381.8 1338.06 1378.3 1360.73C1376.73 1372.2 1375.92 1381.54 1375.47 1387.98L1375.05 1395.43C1375.08 1396.3 1375.04 1397.16 1374.95 1398.02V1398.02Z" fill="#263238"/>
<path d="M1209.9 1123.59C1174.5 1144.96 1174.6 1164.37 1180.52 1182.74C1186.43 1201.11 1208.15 1213.84 1225.99 1206.98C1236.17 1203.1 1243.48 1194.25 1249.85 1185.33C1256.22 1176.41 1262.06 1166.93 1270.84 1160.53C1279.62 1154.13 1292.46 1151.71 1301.34 1158.04" fill="#EF7C8F"/>
<g opacity="0.5">
<path d="M1209.9 1123.59C1174.5 1144.96 1174.6 1164.37 1180.52 1182.74C1186.43 1201.11 1208.15 1213.84 1225.99 1206.98C1236.17 1203.1 1243.48 1194.25 1249.85 1185.33C1256.22 1176.41 1262.06 1166.93 1270.84 1160.53C1279.62 1154.13 1292.46 1151.71 1301.34 1158.04" fill="#4DE9C6"/>
</g>
<path d="M1183.38 1146.99C1192.65 1134.22 1215.5 1130.51 1229.94 1136.88C1244.39 1143.25 1254.96 1155.94 1264.44 1168.57C1273.92 1181.2 1283.12 1194.53 1296.24 1203.34C1309.35 1212.16 1327.72 1215.31 1340.73 1206.46C1344.91 1203.35 1348.4 1199.43 1351.01 1194.92C1353.61 1190.41 1355.27 1185.43 1355.88 1180.26C1357.02 1169.93 1356.31 1159.48 1353.78 1149.4C1350.67 1134.57 1345.56 1119.04 1333.67 1109.63C1320.44 1099.13 1302.18 1098.61 1285.15 1099.13C1265.77 1099.76 1246.07 1101.2 1227.88 1107.91C1209.69 1114.63 1191.11 1129.18 1183.38 1146.95" fill="#4DE9C6"/>
<path d="M1345.52 1369.68C1345.48 1369.42 1345.48 1369.15 1345.52 1368.88V1366.61C1345.52 1364.47 1345.52 1361.53 1345.21 1357.83C1344.97 1350.06 1344.65 1339.04 1344.27 1325.5C1343.88 1311.96 1343.29 1295.63 1342.31 1277.61C1341.33 1259.6 1339.96 1239.8 1337.23 1219.19C1336.01 1209.14 1333.98 1199.21 1331.15 1189.49C1325.75 1172.39 1317.47 1156.33 1306.66 1142.02C1302.11 1136.17 1297.1 1130.68 1291.69 1125.61C1283.8 1118.33 1274.87 1112.25 1265.21 1107.56C1263.49 1106.76 1261.95 1105.99 1260.62 1105.43L1257.13 1104.1L1254.99 1103.23L1254.29 1102.91L1255.06 1103.09L1257.23 1103.79L1260.73 1105.01C1262.09 1105.5 1263.63 1106.23 1265.38 1107C1275.24 1111.52 1284.35 1117.53 1292.39 1124.81C1297.91 1129.85 1303 1135.33 1307.6 1141.22C1312.89 1148 1317.57 1155.24 1321.6 1162.84C1326.08 1171.21 1329.78 1179.98 1332.65 1189.04C1335.44 1198.83 1337.43 1208.83 1338.6 1218.95C1341.33 1239.62 1342.62 1259.46 1343.57 1277.51C1344.51 1295.56 1344.9 1311.79 1345.18 1325.43C1345.45 1339.07 1345.56 1350.13 1345.59 1357.76C1345.59 1361.5 1345.59 1364.44 1345.59 1366.57C1345.59 1367.48 1345.59 1368.25 1345.59 1368.84C1345.59 1369.44 1345.52 1369.68 1345.52 1369.68Z" fill="#263238"/>
<path d="M1358.26 1385.67C1356.56 1380.71 1355.27 1375.62 1354.38 1370.45C1351.92 1356.35 1351.38 1341.99 1352.77 1327.74C1354.93 1306.65 1359.45 1285.87 1366.23 1265.79C1373.51 1242.98 1383.38 1218.63 1391.81 1192.33C1395.95 1179.6 1399.35 1166.65 1401.99 1153.53C1404.32 1141.29 1405.99 1128.94 1406.99 1116.52C1408.61 1095.45 1408.98 1074.31 1408.11 1053.2C1407.51 1035.19 1406.53 1020.6 1405.94 1010.52C1405.66 1005.56 1405.41 1001.67 1405.27 998.91C1405.27 997.651 1405.27 996.672 1405.27 995.902C1405.23 995.554 1405.23 995.201 1405.27 994.853C1405.31 995.19 1405.31 995.53 1405.27 995.867C1405.27 996.637 1405.27 997.651 1405.59 998.91C1405.83 1001.64 1406.15 1005.52 1406.57 1010.49C1407.34 1020.53 1408.49 1034.98 1409.23 1053.17C1410.25 1074.32 1410 1095.51 1408.46 1116.62C1407.47 1129.1 1405.81 1141.51 1403.49 1153.81C1400.9 1167.07 1397.5 1180.15 1393.31 1192.99C1384.84 1219.26 1374.94 1243.61 1367.63 1266.28C1360.81 1286.26 1356.2 1306.93 1353.89 1327.92C1352.41 1342.07 1352.78 1356.36 1354.97 1370.42C1355.84 1375.39 1356.65 1379.23 1357.35 1381.79C1357.63 1383.01 1357.87 1383.99 1358.05 1384.73C1358.16 1385.03 1358.23 1385.35 1358.26 1385.67V1385.67Z" fill="#263238"/>
<path d="M1446.03 1401.66H1279.79L1275.98 1369.65H1446.03V1401.66Z" fill="#455A64"/>
<path d="M1297.63 1398.02L1318.41 1494.01H1408.74L1428.19 1398.02H1297.63Z" fill="#455A64"/>
<path d="M1446.03 1401.66C1446.03 1402.11 1409.47 1402.36 1364.42 1402.22C1319.36 1402.08 1282.77 1401.66 1282.77 1401.2C1282.77 1400.75 1319.32 1400.5 1364.42 1400.64C1409.51 1400.78 1446.03 1401.24 1446.03 1401.66Z" fill="#455A64"/>
<path d="M1417.48 1449.06C1412.98 1445.65 1408.07 1442.83 1402.86 1440.66C1397.18 1438.45 1391.15 1437.26 1385.05 1437.16C1377.57 1437.17 1370.16 1438.52 1363.16 1441.15C1355.6 1443.74 1348.5 1446.71 1341.61 1448.36C1335.49 1449.66 1329.18 1449.85 1323 1448.92C1318.83 1448.31 1314.79 1447.04 1311.03 1445.14C1310.04 1444.59 1309.08 1443.97 1308.16 1443.29C1307.53 1442.83 1307.22 1442.55 1307.25 1442.52C1307.29 1442.48 1308.65 1443.32 1311.31 1444.58C1315.09 1446.22 1319.08 1447.31 1323.17 1447.8C1329.22 1448.58 1335.35 1448.28 1341.29 1446.92C1347.94 1445.28 1355.04 1442.24 1362.67 1439.65C1369.83 1436.96 1377.44 1435.62 1385.09 1435.7C1391.35 1435.9 1397.51 1437.25 1403.28 1439.68C1407.17 1441.29 1410.82 1443.42 1414.12 1446.01C1415.02 1446.7 1415.87 1447.44 1416.68 1448.22C1417.27 1448.71 1417.52 1448.99 1417.48 1449.06Z" fill="#263238"/>
<path d="M1416.22 1455.36C1411.89 1452.06 1407.2 1449.28 1402.23 1447.06C1396.78 1444.85 1390.97 1443.67 1385.09 1443.57C1377.86 1443.6 1370.68 1444.89 1363.89 1447.38C1356.58 1449.83 1349.72 1452.66 1343.15 1454.38C1337.33 1456.05 1331.28 1456.73 1325.24 1456.37C1321.16 1456.13 1317.17 1455.06 1313.52 1453.22C1312.54 1452.71 1311.6 1452.13 1310.72 1451.47C1310.12 1451.02 1309.81 1450.74 1309.84 1450.7C1309.88 1450.67 1311.24 1451.51 1313.8 1452.66C1317.44 1454.24 1321.34 1455.12 1325.31 1455.25C1331.22 1455.44 1337.13 1454.66 1342.8 1452.94C1349.2 1451.16 1356.02 1448.29 1363.44 1445.94C1370.39 1443.4 1377.75 1442.12 1385.16 1442.17C1391.19 1442.36 1397.13 1443.71 1402.65 1446.15C1406.4 1447.78 1409.93 1449.89 1413.15 1452.42C1414.26 1453.33 1415.07 1454.06 1415.59 1454.59C1416.12 1455.11 1416.26 1455.36 1416.22 1455.36Z" fill="white"/>
<path d="M1419.13 1442.69C1414.48 1439.16 1409.45 1436.18 1404.12 1433.81C1398.33 1431.32 1392.15 1429.84 1385.86 1429.43C1378.14 1429.28 1370.46 1430.64 1363.26 1433.42C1355.98 1436.28 1348.54 1438.71 1340.98 1440.7C1334.61 1441.79 1328.1 1441.79 1321.74 1440.7C1317.45 1440.02 1313.28 1438.7 1309.39 1436.78C1308.34 1436.24 1307.33 1435.62 1306.38 1434.93C1305.75 1434.44 1305.44 1434.16 1305.47 1434.12C1305.51 1434.09 1306.91 1435 1309.67 1436.22C1313.57 1437.93 1317.69 1439.11 1321.91 1439.72C1328.15 1440.64 1334.5 1440.52 1340.7 1439.37C1348.18 1437.31 1355.55 1434.86 1362.77 1432.02C1370.16 1429.16 1378.05 1427.81 1385.96 1428.07C1396.77 1428.95 1407.09 1432.95 1415.66 1439.58C1416.59 1440.3 1417.48 1441.07 1418.32 1441.89C1418.88 1442.34 1419.2 1442.66 1419.13 1442.69Z" fill="white"/>
<path d="M1447.5 1401.8C1447.5 1402.25 1410.1 1402.6 1364 1402.6C1317.89 1402.6 1280.46 1402.25 1280.46 1401.8C1280.46 1401.34 1317.85 1401.03 1364 1401.03C1410.14 1401.03 1447.5 1401.38 1447.5 1401.8Z" fill="#263238"/>
<path d="M177.127 1365.28C183.109 1373.81 194.618 1370.98 200.146 1365.77C205.673 1360.55 207.807 1353.03 209.87 1345.83C214.593 1329.35 219.386 1312.07 215.852 1295.31C215.008 1290.24 212.781 1285.49 209.416 1281.6C207.722 1279.69 205.559 1278.26 203.142 1277.44C200.725 1276.63 198.136 1276.46 195.633 1276.95C189.756 1278.49 186.118 1284.22 183.494 1289.68C175.745 1305.81 171.682 1323.46 171.6 1341.35C171.038 1349.7 173 1358.02 177.232 1365.24" fill="#EF7C8F"/>
<g opacity="0.2">
<path d="M177.127 1365.28C183.109 1373.81 194.618 1370.98 200.146 1365.77C205.673 1360.55 207.807 1353.03 209.87 1345.83C214.593 1329.35 219.386 1312.07 215.852 1295.31C215.008 1290.24 212.781 1285.49 209.416 1281.6C207.722 1279.69 205.559 1278.26 203.142 1277.44C200.725 1276.63 198.136 1276.46 195.633 1276.95C189.756 1278.49 186.118 1284.22 183.494 1289.68C175.745 1305.81 171.682 1323.46 171.6 1341.35C171.038 1349.7 173 1358.02 177.232 1365.24" fill="#4DE9C6"/>
</g>
<path d="M199.551 1408.51C209.574 1403.81 220.844 1402.45 231.699 1404.63C237.624 1405.13 243.212 1407.59 247.581 1411.63C251.534 1416.04 252.303 1423.73 247.581 1427.51C244.642 1429.49 241.103 1430.38 237.576 1430.03C229.075 1430.03 219.665 1428.45 212.879 1433.53C208.996 1436.43 206.407 1441.29 201.789 1442.73C199.47 1443.26 197.04 1443.02 194.865 1442.06C192.689 1441.09 190.885 1439.45 189.721 1437.37C187.536 1433.1 187.061 1428.16 188.391 1423.56C188.96 1420.36 190.264 1417.33 192.2 1414.72C194.137 1412.11 196.653 1409.99 199.551 1408.51V1408.51Z" fill="#4DE9C6"/>
<path d="M160.651 1377.52C163.726 1373.51 165.774 1368.81 166.616 1363.83C167.457 1358.85 167.067 1353.74 165.478 1348.94C162.203 1339.37 156.343 1330.9 148.547 1324.45C139.701 1316.56 129.398 1310.48 118.218 1306.54C113.892 1304.79 109.236 1304 104.575 1304.23C102.242 1304.38 99.9807 1305.09 97.9871 1306.31C95.9934 1307.53 94.3279 1309.22 93.1355 1311.23C89.9521 1317.32 93.1355 1324.7 96.3188 1330.71C102.173 1341.29 108.852 1351.38 116.294 1360.9C122.275 1368.6 129.132 1376.19 138.227 1379.69C147.323 1383.19 156.768 1382.77 161.595 1376.44" fill="#4DE9C6"/>
<path d="M176.743 1494.12C177.041 1492.84 177.217 1491.54 177.267 1490.23C177.547 1487.4 177.897 1483.83 178.317 1479.74C178.831 1474.52 179.625 1469.34 180.696 1464.21C182.072 1457.95 183.956 1451.82 186.328 1445.88C188.619 1439.9 191.753 1434.28 195.633 1429.19C198.793 1425.06 202.832 1421.69 207.457 1419.32C210.594 1417.77 213.96 1416.73 217.427 1416.25C218.735 1416.17 220.035 1415.99 221.31 1415.69C219.997 1415.52 218.669 1415.52 217.357 1415.69C213.726 1415.95 210.171 1416.86 206.862 1418.38C201.989 1420.68 197.715 1424.08 194.374 1428.31C190.322 1433.45 187.057 1439.15 184.684 1445.25C182.272 1451.27 180.399 1457.5 179.086 1463.86C178.075 1469.06 177.386 1474.31 177.023 1479.6C176.673 1484.08 176.533 1487.75 176.498 1490.09C176.432 1491.44 176.514 1492.79 176.743 1494.12V1494.12Z" fill="#263238"/>
<path d="M177.477 1485.96C177.522 1485.36 177.522 1484.75 177.477 1484.15C177.477 1482.78 177.477 1481.1 177.477 1479C177.477 1474.53 177.477 1468.05 177.722 1460.08C178.107 1444.13 179.471 1422.05 182.13 1397.84C184.788 1373.64 188.356 1351.81 191.61 1336.17C192.344 1332.22 193.114 1328.72 193.848 1325.68C194.583 1322.63 195.143 1319.9 195.702 1317.77L196.892 1312.77C197.09 1312.19 197.196 1311.59 197.207 1310.98C196.953 1311.52 196.754 1312.09 196.612 1312.66C196.192 1313.96 195.703 1315.6 195.108 1317.6C194.513 1319.59 193.744 1322.39 192.974 1325.47C192.204 1328.55 191.33 1332.08 190.49 1335.96C186.077 1356.35 182.761 1376.96 180.555 1397.7C177.897 1421.98 176.707 1444.09 176.567 1460.11C176.567 1468.09 176.567 1474.59 176.847 1479.04C176.987 1481.14 177.092 1482.85 177.162 1484.18C177.189 1484.79 177.295 1485.39 177.477 1485.96Z" fill="#263238"/>
<path d="M177.582 1443.32C177.704 1441.53 177.704 1439.73 177.582 1437.93C177.372 1434.44 176.882 1429.47 175.938 1423.35C174.732 1416.19 173.132 1409.1 171.145 1402.11C168.798 1393.54 165.828 1385.14 162.26 1377C156.098 1362 147.255 1348.25 136.163 1336.42C134.251 1334.38 132.206 1332.48 130.041 1330.71C129.097 1329.91 128.257 1329.11 127.418 1328.48L125.039 1326.87C123.608 1325.77 122.086 1324.8 120.491 1323.96C125.722 1328.05 130.688 1332.47 135.359 1337.19C146.04 1349.13 154.595 1362.82 160.651 1377.66C164.176 1385.75 167.168 1394.05 169.606 1402.53C171.915 1410.33 173.454 1417.5 174.643 1423.52C175.833 1429.54 176.392 1434.51 176.777 1437.93C176.905 1439.75 177.174 1441.55 177.582 1443.32V1443.32Z" fill="#263238"/>
<path d="M693.392 29.5248C693.985 29.4627 694.583 29.4627 695.176 29.5248H700.423C703.261 29.5779 706.091 29.8469 708.889 30.3294C710.568 30.6092 712.387 30.7842 714.276 31.169L720.328 32.6732C730.675 35.3923 740.507 39.7883 749.433 45.6865C770.962 60.0049 786.192 82.0232 791.995 107.22C797.798 132.416 793.734 158.878 780.637 181.172C769.426 200.155 752.366 214.994 732.012 223.465C721.294 227.898 709.878 230.409 698.289 230.881C686.366 231.619 674.409 230.136 663.027 226.508L661.978 226.158H662.782L603.838 246.588L601.459 247.428L602.194 244.979L617.516 196.004L617.761 197.193C607.279 185.466 599.682 171.451 595.576 156.267C591.47 141.084 590.969 125.15 594.113 109.738C596.724 96.7878 601.898 84.4899 609.33 73.5671C615.668 64.1447 623.557 55.8649 632.663 49.0797C639.932 43.4708 648.012 39.0003 656.626 35.8216C660.037 34.4092 663.544 33.2402 667.12 32.3234C670.104 31.4813 673.143 30.8501 676.216 30.4343C678.979 30.0495 681.428 29.6297 683.527 29.4548L688.914 29.2799H692.377C692.748 29.2198 693.126 29.2198 693.497 29.2799C693.129 29.3668 692.754 29.4253 692.377 29.4548L689.124 29.6997L683.807 30.0845C681.708 30.3294 679.294 30.7842 676.565 31.2389C673.536 31.7171 670.543 32.4068 667.61 33.3029C664.032 34.2138 660.524 35.3829 657.115 36.8011C653.182 38.3955 649.34 40.2057 645.606 42.2233C641.44 44.5916 637.443 47.2449 633.642 50.1642C624.782 56.9132 617.099 65.0809 610.904 74.3367C603.675 85.1439 598.679 97.2874 596.212 110.053C593.234 125.107 593.801 140.648 597.869 155.445C601.937 170.242 609.394 183.889 619.65 195.304L620.139 195.829L619.929 196.494C615.055 212.236 609.983 228.561 604.712 245.469L603.068 243.894L661.943 223.99H662.363H662.782L663.797 224.304C674.888 227.827 686.533 229.274 698.149 228.572C709.444 228.114 720.572 225.687 731.032 221.401C750.905 213.163 767.581 198.72 778.573 180.227C791.378 158.402 795.406 132.524 789.839 107.84C784.272 83.1556 769.527 61.5116 748.593 47.2957C739.837 41.4071 730.202 36.944 720.048 34.0725L714.101 32.4633C712.212 32.0435 710.428 31.8336 708.784 31.5188C706.016 30.9564 703.209 30.6056 700.388 30.4693L695.176 30.0495C694.568 29.9223 693.971 29.7468 693.392 29.5248V29.5248Z" fill="#5677BA"/>
<path d="M634.132 137.059L649.629 121.527L679.538 148.114L738.273 91.6177L752.651 107.15L677.335 178.023L634.132 137.059Z" fill="#5677BA"/>
</svg>
